<?xml version="1.0" encoding="UTF-8"?><svg id="a" xmlns="http://www.w3.org/2000/svg" viewBox="0 0 532.28 149.32"><defs><style>.b{fill:#ffc728;}.c{fill:#fead1c;}.d{fill:#1d2f38;}.e{fill:#17a550;}.f{fill:#768f9c;}</style></defs><path class="e" d="M142.83,25.2h31.42c.78,0,1.48,.5,1.73,1.25l33.43,101.29c.39,1.18-.49,2.39-1.73,2.39h-26.79c-.81,0-1.52-.54-1.75-1.32l-4.82-16.74c-.22-.78-.94-1.32-1.75-1.32h-28.22c-.82,0-1.53,.54-1.75,1.33l-4.69,16.72c-.22,.78-.94,1.33-1.75,1.33h-26.78c-1.24,0-2.11-1.21-1.73-2.39L141.11,26.45c.25-.74,.94-1.25,1.73-1.25Zm22.25,62.51c1.21,0,2.08-1.15,1.75-2.32l-4.18-14.71c-.75-2.82-1.67-6.67-2.47-10.14-.44-1.91-3.17-1.87-3.55,.05-.7,3.46-1.53,7.28-2.35,10.09l-4.18,14.71c-.33,1.16,.54,2.32,1.75,2.32h13.23Z"/><path class="b" d="M128.19,65.58c-1.3-4.92-2.94-9.85-4.92-14.75,8.93-5.33,18.91-9.75,29.78-12.97-19.13-10.02-39.88-15.75-60.88-17.16-1.04,15.78-2.1,31.56-3.15,47.34,12.13,.81,24.15,3.71,35.49,8.69l3.68-11.15Z"/><path class="d" d="M186.31,60.77h6.54v-1.29c0-18.23,16.08-21.02,26.59-21.02,4.61,0,7.61,.54,7.61,.54v16.51s-2.04-.43-4.29-.43c-3.65,0-7.51,.96-7.51,4.61v1.07h17.05v-1.29c0-18.12,18.12-23.05,29.92-23.05,10.4,0,16.62,3.11,16.62,3.11l-4.5,16.19s-3.65-2.14-9.33-2.14c-4.61,0-10.29,2.04-10.29,6.11v1.07h35.28v55.22h-22.41v-38.71h-12.87v38.71h-22.41v-38.71h-17.05v38.71h-22.41v-38.71h-6.54v-16.51Z"/><path class="d" d="M294.77,39.33h22.41v52.22c0,5.25,.96,6.86,4.61,6.86,1.07,0,2.25-.21,2.25-.21v17.91s-3.32,.43-7.4,.43c-11.04,0-21.87-3.43-21.87-21.98V39.33Z"/><path class="d" d="M329.94,60.77h22.41v55.22h-22.41V60.77Zm.21-23.27h21.98v16.3h-21.98v-16.3Z"/><path class="d" d="M387.58,81.58h.43v-.97c0-3.54-2.57-4.93-6.86-4.93-7.29,0-15.01,4.72-15.01,4.72l-6.33-14.48s9.44-6.43,24.98-6.43,25.63,7.72,25.63,21.98v34.53h-20.48v-3.32c0-1.5,.21-3.11,.21-3.11h-.21s-4.18,7.72-15.12,7.72c-9.33,0-18.55-5.9-18.55-17.37,0-17.16,22.73-18.33,31.31-18.33Zm-6.22,21.02c4.18,0,7.18-4.18,7.18-8.04v-1.82h-1.39c-4.93,0-10.19,1.61-10.19,5.79,0,2.47,1.5,4.07,4.4,4.07Z"/><path class="d" d="M419.84,78.25h-6.86v-16.51h7.4v-15.87h21.87v15.87h11.37v16.51h-11.37v13.08c0,6.33,5.04,7.08,8.26,7.08,2.36,0,3.86-.21,3.86-.21v17.91s-3.43,.43-8.36,.43c-10.29,0-26.16-3-26.16-21.98v-16.3Z"/><path class="d" d="M488.46,59.49c17.58,0,26.38,11.37,26.38,25.73,0,2.47-.43,6.86-.43,6.86h-33.45c.86,6.11,5.47,8.58,11.47,8.58,8.69,0,14.9-5.04,14.9-5.04l7.4,14.26s-8.47,7.4-24.12,7.4c-22.09,0-32.17-14.26-32.17-28.95,0-16.08,11.04-28.84,30.02-28.84Zm6.22,21.34c-.11-4.5-2.79-7.29-6.33-7.29-4.07,0-6.43,2.9-7.08,7.29h13.4Z"/><rect class="f" x="41.03" y="5.38" width="9.36" height="144.4" rx="3.9" ry="3.9" transform="translate(-28.23 26.19) rotate(-24.7)"/><circle class="f" cx="15.07" cy="11.81" r="9.91" transform="translate(-2.19 3.53) rotate(-12.47)"/><path class="c" d="M113.46,23.63c-6.61-1.48-16.68-2.63-21.28-2.93-1.04,15.78-2.1,31.56-3.15,47.34,3.16,.21,12.5,1.73,15.64,2.23,3.27-17.74,6.31-31.01,8.8-46.63Z"/><path class="b" d="M95.56,65.7c-19.82-2.52-40.2,.43-58.83,8.92-7.01-15.38-14.01-30.75-21.02-46.13,25.47-11.6,53.17-16.15,80.34-13.72,3.24,.29,5.58,3.25,5.17,6.47-1.89,14.82-3.77,29.63-5.66,44.45Z"/></svg>