<?xml version="1.0" encoding="utf-8"?>
<!-- Generator: Adobe Illustrator 26.1.0, SVG Export Plug-In . SVG Version: 6.00 Build 0)  -->
<svg version="1.1" id="Layer_1" xmlns="http://www.w3.org/2000/svg" xmlns:xlink="http://www.w3.org/1999/xlink" x="0px" y="0px"
	 viewBox="0 0 835.5 645.5" style="enable-background:new 0 0 835.5 645.5;" xml:space="preserve">
<style type="text/css">
	.st0{fill:#AABCC5;}
	.st1{fill:#FFFFFF;}
	.st2{fill:#17A550;}
	.st3{fill:#FFB6B6;}
	.st4{fill:#536D7A;}
	.st5{fill:#1D2F38;}
	.st6{opacity:0.2;enable-background:new    ;}
</style>
<path class="st0" d="M800.8,564.8c-3.3-26.7-19.9-53-45.3-61.6c10,27.5,10,57.6,0,85c-3.9,10.6-9.4,21.9-5.7,32.6
	c2.3,6.6,7.9,11.7,14.1,14.9c6.3,3.2,13.2,4.7,20.1,6.2l1.3,1.1C796.3,618.3,804.2,591.4,800.8,564.8z"/>
<path class="st1" d="M755.3,503.6c14.8,16.6,24,37.4,26.3,59.6c0.6,4.8,0.4,9.6-0.5,14.3c-1,4.6-3.3,8.7-6.5,12.1
	c-2.9,3.2-6.3,6.2-8.4,10.1c-2.1,4-2.4,8.8-0.8,13.1c1.9,5.3,5.5,9.6,9.2,13.7c4.1,4.6,8.5,9.2,10.2,15.3c0.2,0.7,1.3,0.4,1.1-0.4
	c-3.1-10.5-13.3-16.5-18.1-26c-2.3-4.4-3.2-9.6-1.1-14.2c1.9-4.1,5.3-7.1,8.3-10.4c3.2-3.3,5.5-7.3,6.8-11.6
	c1.2-4.6,1.5-9.4,1.1-14.2c-0.8-10.7-3.4-21.3-7.5-31.2c-4.6-11.4-11.2-21.9-19.4-31C755.6,502.2,754.8,503.1,755.3,503.6
	L755.3,503.6z"/>
<path class="st1" d="M781.3,556c7.6-1.8,12.7-8.9,12.1-16.6c-0.1-0.8-1.2-0.7-1.2,0.1c0.6,7.2-4.2,13.8-11.3,15.5
	C780.2,555.1,780.6,556.2,781.3,556z"/>
<path class="st1" d="M776.3,588.2c-6.6-3.9-11.5-10.2-13.7-17.6c-0.2-0.7-1.3-0.4-1.1,0.4c2.3,7.7,7.4,14.2,14.3,18.3
	C776.4,589.6,776.9,588.6,776.3,588.2L776.3,588.2z"/>
<path class="st1" d="M769.7,523.5c-2.7,1.3-5.9,1.1-8.5-0.4c-0.7-0.4-1.2,0.7-0.5,1.1c2.9,1.7,6.4,1.9,9.4,0.5
	c0.3-0.1,0.5-0.4,0.4-0.7C770.4,523.6,770,523.4,769.7,523.5L769.7,523.5z"/>
<path class="st0" d="M678,550.8c0.4,0.3,0.8,0.5,1.2,0.8c5.4,3.5,10.4,7.5,15.1,11.8c0.4,0.3,0.7,0.7,1.1,1
	c11.3,10.6,20.4,23.2,27.1,37.1c2.6,5.5,4.9,11.3,6.6,17.2c2.5,8.1,4.5,17.1,9.3,23.8c0.5,0.7,1,1.4,1.6,2h43.8
	c0.1,0,0.2-0.1,0.3-0.1l1.8,0.1c-0.1-0.3-0.1-0.6-0.2-0.9c0-0.2-0.1-0.4-0.1-0.5c0-0.1-0.1-0.2-0.1-0.3c0,0,0-0.1,0-0.1
	c0-0.1-0.1-0.2-0.1-0.3c-0.4-1.8-0.9-3.6-1.4-5.4c0,0,0,0,0,0c-3.6-13.6-8.4-27.1-15-39.4c-0.2-0.4-0.4-0.8-0.6-1.1
	c-3-5.5-6.5-10.8-10.4-15.8c-2.1-2.7-4.4-5.3-6.8-7.8c-6.2-6.4-13.4-11.8-21.3-15.9c-15.7-8.3-33.9-11.5-50.7-6.4
	C678.8,550.5,678.4,550.6,678,550.8z"/>
<path class="st1" d="M678.1,551.3c21.8,4.3,41.7,15.4,56.9,31.7c3.3,3.4,6.1,7.4,8.2,11.7c1.9,4.3,2.6,9,2.1,13.6
	c-0.4,4.3-1.3,8.7-0.7,13.1c0.7,4.5,3.4,8.5,7.2,10.9c4.7,3.1,10.2,4.4,15.6,5.4c6,1.2,12.3,2.3,17.4,6c0.6,0.5,1.3-0.5,0.7-1
	c-8.8-6.6-20.5-5.2-30.1-9.8c-4.5-2.2-8.3-5.7-9.4-10.7c-1-4.4,0-8.9,0.4-13.3c0.6-4.5,0-9.1-1.6-13.4c-1.9-4.4-4.5-8.5-7.7-12
	c-7.1-8.1-15.5-14.9-24.8-20.4c-10.6-6.3-22.1-10.7-34.2-13.1C677.4,550,677.4,551.2,678.1,551.3z"/>
<path class="st1" d="M730.4,577.5c4.9-6,4.8-14.7-0.4-20.6c-0.5-0.6-1.4,0.2-0.9,0.8c4.8,5.4,4.9,13.6,0.3,19.1
	C728.9,577.4,729.9,578.1,730.4,577.5z"/>
<path class="st1" d="M745.8,606.2c-7.7,0.8-15.3-1.3-21.5-5.8c-0.6-0.5-1.3,0.5-0.7,1c6.4,4.8,14.5,6.9,22.4,6
	C746.7,607.3,746.5,606.1,745.8,606.2L745.8,606.2z"/>
<path class="st1" d="M701.6,558.5c-1.4,2.7-4.1,4.5-7.1,4.8c-0.8,0.1-0.5,1.2,0.2,1.2c3.3-0.4,6.3-2.3,7.8-5.3
	c0.2-0.3,0.1-0.6-0.1-0.8C702.1,558.2,701.8,558.3,701.6,558.5L701.6,558.5z"/>
<path id="a0650842-7e0d-4738-afc6-e49dd139c2fd-202" class="st0" d="M607.4,96L84.3,0.1c-1.1-0.2-2.2-0.2-3.2,0
	c-1,0.2-1.9,0.6-2.6,1.2c-0.8,0.6-1.4,1.4-1.8,2.2c-0.4,0.9-0.7,2-0.7,3v468.6c0,1,0.2,2.1,0.7,3c0.4,0.9,1,1.6,1.8,2.2
	c0.8,0.6,1.7,1,2.6,1.2c1.1,0.2,2.2,0.2,3.2,0L607.4,386c0.4-0.1,0.8-0.3,1.2-0.6c0.4-0.3,0.7-0.7,0.9-1.2c0.3-0.5,0.5-1.1,0.6-1.6
	c0.2-0.6,0.2-1.3,0.2-1.9V101.3c0-0.6-0.1-1.3-0.2-1.9c-0.1-0.6-0.4-1.1-0.6-1.6c-0.2-0.5-0.6-0.9-0.9-1.2
	C608.3,96.3,607.9,96.1,607.4,96L607.4,96z"/>
<path id="ab230013-2870-4714-bfc2-3c974790ba7e-203" class="st1" d="M615.4,96L92.3,0.1c-1.1-0.2-2.2-0.2-3.2,0
	c-1,0.2-1.9,0.6-2.6,1.2c-0.8,0.6-1.4,1.4-1.8,2.2c-0.4,0.9-0.7,2-0.7,3v468.6c0,1,0.2,2.1,0.7,3c0.4,0.9,1,1.6,1.8,2.2
	c0.8,0.6,1.7,1,2.6,1.2c1.1,0.2,2.2,0.2,3.2,0L615.4,386c0.4-0.1,0.8-0.3,1.2-0.6c0.4-0.3,0.7-0.7,0.9-1.2c0.3-0.5,0.5-1.1,0.6-1.6
	c0.2-0.6,0.2-1.3,0.2-1.9V101.3c0-0.6-0.1-1.3-0.2-1.9c-0.1-0.6-0.4-1.1-0.6-1.6c-0.2-0.5-0.6-0.9-0.9-1.2
	C616.3,96.3,615.9,96.1,615.4,96L615.4,96z"/>
<path id="efb73e9a-ed9f-4c58-9f24-e2c56f2a395b-204" class="st0" d="M615.4,96L92.3,0.1c-1.1-0.2-2.2-0.2-3.2,0
	c-1,0.2-1.9,0.6-2.6,1.2c-0.8,0.6-1.4,1.4-1.8,2.2c-0.4,0.9-0.7,2-0.7,3v468.6c0,1,0.2,2.1,0.7,3c0.4,0.9,1,1.6,1.8,2.2
	c0.8,0.6,1.7,1,2.6,1.2c1.1,0.2,2.2,0.2,3.2,0L615.4,386c0.4-0.1,0.8-0.3,1.2-0.6c0.4-0.3,0.7-0.7,0.9-1.2c0.3-0.5,0.5-1.1,0.6-1.6
	c0.2-0.6,0.2-1.3,0.2-1.9V101.3c0-0.6-0.1-1.3-0.2-1.9c-0.1-0.6-0.4-1.1-0.6-1.6c-0.2-0.5-0.6-0.9-0.9-1.2
	C616.3,96.3,615.9,96.1,615.4,96L615.4,96z M617.4,380.8c0,0.4-0.1,0.9-0.2,1.3c-0.1,0.4-0.2,0.7-0.4,1.1c-0.2,0.3-0.4,0.6-0.6,0.8
	c-0.2,0.2-0.5,0.3-0.8,0.4L92.3,479.1c-0.7,0.1-1.4,0.1-2.1,0c-0.6-0.1-1.2-0.4-1.8-0.8c-0.5-0.4-0.9-0.9-1.2-1.5
	c-0.3-0.6-0.4-1.3-0.4-2V7.1c0-0.7,0.1-1.4,0.4-2c0.3-0.6,0.7-1.1,1.2-1.5C89,3.3,89.6,3,90.2,2.8c0.7-0.2,1.4-0.2,2.1,0l523.1,94.8
	c0.3,0.1,0.6,0.2,0.8,0.4c0.3,0.2,0.5,0.5,0.6,0.8c0.2,0.3,0.3,0.7,0.4,1.1c0.1,0.4,0.2,0.8,0.2,1.3L617.4,380.8L617.4,380.8z"/>
<path id="f96011ca-2547-471d-b877-843add24502e-205" class="st0" d="M0,146.3c0-3.2,0.7-6.4,2-9.3c1.2-2.7,3.1-5.1,5.4-6.9
	c2.3-1.9,5-3.2,7.9-3.9c3.1-0.8,6.4-0.9,9.5-0.3c3.3,0.6,6.5,1.8,9.4,3.5c2.9,1.7,5.4,3.9,7.6,6.4c2.1,2.5,3.8,5.3,5.1,8.4
	c1.2,3,1.8,6.3,1.8,9.5c0,3.1-0.6,6.1-1.8,9c-1.2,2.6-2.9,5-5.1,6.8c-2.2,1.9-4.8,3.3-7.6,4.1c-3.1,0.9-6.2,1.1-9.4,0.6l0,0
	c-3.3-0.5-6.6-1.5-9.5-3.2c-3-1.6-5.6-3.8-7.9-6.3c-2.3-2.5-4.1-5.4-5.4-8.6C0.7,153,0,149.7,0,146.3z"/>
<path id="e2afd39c-bfa9-4aab-9b72-f2692ed67225-206" class="st0" d="M0,243.3c0-3.2,0.7-6.4,2-9.3c1.2-2.7,3.1-5.1,5.4-6.9
	c2.3-1.9,5-3.2,7.9-3.9c3.1-0.8,6.4-0.9,9.5-0.3c3.3,0.6,6.5,1.8,9.4,3.5c2.9,1.7,5.4,3.9,7.6,6.4c2.1,2.5,3.8,5.3,5.1,8.4
	c1.2,3,1.8,6.3,1.8,9.5c0,3.1-0.6,6.1-1.8,9c-1.2,2.6-2.9,5-5.1,6.8c-2.2,1.9-4.8,3.3-7.6,4.1c-3.1,0.9-6.2,1.1-9.4,0.6l0,0
	c-3.3-0.5-6.6-1.5-9.5-3.2c-3-1.6-5.6-3.8-7.9-6.3c-2.3-2.5-4.1-5.4-5.4-8.6C0.7,250,0,246.7,0,243.3z"/>
<path id="a7f5fcd6-9ca6-43fc-9a19-c5543edb3dc0-207" class="st0" d="M0,340.3c0-3.2,0.7-6.4,2-9.3c1.2-2.7,3.1-5.1,5.4-6.9
	c2.3-1.9,5-3.2,7.9-3.9c3.1-0.8,6.4-0.9,9.5-0.3c3.3,0.6,6.5,1.8,9.4,3.5c2.9,1.7,5.4,3.9,7.6,6.4c2.1,2.5,3.8,5.3,5.1,8.4
	c1.2,3,1.8,6.3,1.8,9.5c0,3.1-0.6,6.1-1.8,9c-1.2,2.6-2.9,5-5.1,6.8c-2.2,1.9-4.8,3.3-7.6,4.1c-3.1,0.9-6.2,1.1-9.4,0.6l0,0
	c-3.3-0.5-6.6-1.5-9.5-3.2c-3-1.6-5.6-3.8-7.9-6.3c-2.3-2.5-4.1-5.4-5.4-8.6C0.7,347,0,343.7,0,340.3z"/>
<path id="bf82177c-c5c5-4721-a492-d21e500fa887-208" class="st2" d="M6,146.3c0-3.2,0.7-6.4,2-9.3c1.2-2.7,3.1-5.1,5.4-6.9
	c2.3-1.9,5-3.2,7.9-3.9c3.1-0.8,6.4-0.9,9.5-0.3c3.3,0.6,6.5,1.8,9.4,3.5c2.9,1.7,5.4,3.9,7.6,6.4c2.1,2.5,3.8,5.3,5.1,8.4
	c1.2,3,1.8,6.3,1.8,9.5c0,3.1-0.6,6.1-1.8,9c-1.2,2.6-2.9,5-5.1,6.8c-2.2,1.9-4.8,3.3-7.6,4.1c-3.1,0.9-6.2,1.1-9.4,0.6l0,0
	c-3.3-0.5-6.6-1.5-9.5-3.2c-3-1.6-5.6-3.8-7.9-6.3c-2.3-2.5-4.1-5.4-5.4-8.6C6.7,153,6,149.7,6,146.3z"/>
<path id="fe313e0a-2048-439a-a54e-0e20ebfa32da-209" class="st2" d="M6,242.6c0-3.2,0.7-6.5,2-9.4c1.3-2.8,3.1-5.3,5.4-7.3
	c2.3-2,5-3.6,7.9-4.5c3.1-1,6.3-1.3,9.5-1c3.3,0.3,6.5,1.3,9.4,2.8c2.8,1.5,5.4,3.5,7.6,5.8c2.1,2.3,3.9,5.1,5.1,8
	c1.2,3,1.8,6.2,1.8,9.4c0,3.1-0.6,6.2-1.8,9.1c-2.4,5.5-6.9,9.8-12.6,11.9c-3,1.1-6.2,1.5-9.4,1.3l0,0c-3.3-0.2-6.5-1-9.5-2.5
	c-6-2.9-10.7-7.8-13.3-13.9C6.7,249.3,6,245.9,6,242.6z"/>
<path id="bd4ad8d1-9beb-4dfd-9043-04087d822fa4-210" class="st2" d="M6,338.9c0-6.5,2.6-12.8,7.4-17.3c9.7-9.3,25.2-9,34.5,0.8
	c2.1,2.2,3.7,4.7,4.9,7.5c5.1,12.3-0.8,26.4-13.1,31.5c-2.8,1.2-5.9,1.8-8.9,1.8l0,0c-9.9,0.1-18.8-5.6-22.8-14.7
	C6.7,345.5,6,342.2,6,338.9z"/>
<path id="a8cdce74-e5d0-4904-9e42-fa7998d61cd8-211" class="st1" d="M21.1,146.2l7.3,1.1v-7.2c0-0.3,0.1-0.6,0.2-0.9
	c0.1-0.3,0.3-0.5,0.5-0.7c0.2-0.2,0.5-0.3,0.8-0.4c0.3-0.1,0.6-0.1,0.9,0c0.3,0.1,0.6,0.2,0.9,0.3c0.3,0.2,0.5,0.4,0.8,0.6
	c0.2,0.2,0.4,0.5,0.5,0.8c0.1,0.3,0.2,0.6,0.2,1v7.1l7.1,1.1c0.3,0.1,0.6,0.2,0.9,0.3c0.6,0.3,1,0.8,1.3,1.4
	c0.1,0.3,0.2,0.6,0.2,0.9c0,0.3-0.1,0.6-0.2,0.9c-0.1,0.3-0.3,0.5-0.5,0.7c-0.2,0.2-0.5,0.3-0.7,0.4c-0.3,0.1-0.6,0.1-0.9,0
	l-7.1-1.1v7.1c0,0.3-0.1,0.6-0.2,0.9c-0.1,0.3-0.3,0.5-0.5,0.7c-0.2,0.2-0.5,0.3-0.8,0.4c-0.3,0.1-0.6,0.1-0.9,0.1
	c-0.3,0-0.6-0.2-0.9-0.3c-0.3-0.2-0.5-0.4-0.8-0.6c-0.2-0.2-0.4-0.5-0.5-0.8c-0.1-0.3-0.2-0.6-0.2-1V152l-7.3-1.1
	c-0.3-0.1-0.7-0.2-0.9-0.3c-0.3-0.2-0.6-0.4-0.8-0.6c-0.2-0.2-0.4-0.5-0.5-0.8c-0.1-0.3-0.2-0.6-0.2-1c0-0.3,0.1-0.6,0.2-0.9
	c0.1-0.3,0.3-0.5,0.5-0.7c0.2-0.2,0.5-0.3,0.8-0.4C20.5,146.1,20.8,146.1,21.1,146.2z"/>
<path id="b7a04d04-cd1f-49a6-9e27-762621fbfe12-212" class="st1" d="M26.2,250.9l20.2,1.5h0.1L37,235.2c-0.1-0.1-0.1-0.2-0.2-0.3
	c-0.1,0-0.1-0.1-0.2-0.1c-0.1,0-0.1,0-0.2,0c-0.1,0-0.1,0-0.2,0c-0.1,0-0.1,0-0.2,0.1c-0.1,0.1-0.2,0.1-0.2,0.2l-6.4,10.6l-0.3,0.5
	L26.2,250.9z"/>
<path id="aee7be29-824b-4068-b60b-6c8751f56236-213" class="st1" d="M14.7,250.1l17.8,1.3l-3.4-5.2l-0.2-0.4l-4.5-6.8
	c-0.1-0.1-0.2-0.2-0.3-0.3c-0.1,0-0.1-0.1-0.2-0.1c-0.1,0-0.1,0-0.2,0c-0.1,0-0.1,0-0.2,0c-0.1,0-0.1,0-0.2,0c-0.1,0-0.1,0-0.2,0.1
	c-0.1,0-0.1,0.1-0.1,0.1l0,0l0,0l0,0l0,0L14.7,250.1z"/>
<path id="ba3c0334-c882-4ee2-a1c6-8432d6f0f237-214" class="st1" d="M28.2,232.4c0.4,0,0.8,0.1,1.2,0.3c0.4,0.2,0.7,0.4,1,0.7
	c0.3,0.3,0.5,0.6,0.6,1c0.2,0.4,0.2,0.8,0.2,1.2c0,0.4-0.1,0.8-0.2,1.1c-0.2,0.3-0.4,0.6-0.6,0.9c-0.3,0.3-0.6,0.4-1,0.6
	c-0.4,0.1-0.8,0.2-1.2,0.1c-0.4,0-0.8-0.1-1.2-0.3c-0.4-0.2-0.7-0.4-1-0.7c-0.3-0.3-0.5-0.6-0.7-1c-0.2-0.4-0.2-0.8-0.2-1.2
	c0-0.4,0.1-0.8,0.2-1.1c0.2-0.3,0.4-0.6,0.7-0.9c0.3-0.3,0.6-0.4,1-0.6C27.4,232.4,27.8,232.4,28.2,232.4z"/>
<path id="a6488acd-751d-43fe-95e8-3811e87b97c8-215" class="st0" d="M245.8,300.8l199.7-189.5l0.9,1.5L247,302.4L245.8,300.8z"/>
<path id="f4872601-d834-4ac9-b8ed-95180004a4aa-216" class="st0" d="M245.8,86.1l1.3-1.5l199.2,206.8l-0.9,1.4L245.8,86.1z"/>
<path id="fd144007-5a21-49cb-9314-d281c54acffb-217" class="st0" d="M443.4,108.6L249.3,82c-0.9-0.1-1.8-0.1-2.7,0.2
	c-0.8,0.3-1.6,0.7-2.2,1.3c-0.6,0.6-1.1,1.4-1.5,2.2c-0.4,0.9-0.6,1.9-0.5,2.9v208.9c0,1,0.2,2,0.5,2.9c0.3,0.9,0.8,1.7,1.5,2.3
	c0.6,0.6,1.4,1.2,2.2,1.5c0.8,0.3,1.8,0.5,2.7,0.4L443.4,294c0.7,0,1.3-0.2,1.8-0.6c0.6-0.4,1.1-0.9,1.5-1.4c0.4-0.6,0.8-1.3,1-2
	c0.2-0.8,0.4-1.6,0.4-2.4v-172c0-0.8-0.1-1.7-0.4-2.5c-0.2-0.8-0.6-1.5-1-2.1c-0.4-0.6-0.9-1.1-1.5-1.5
	C444.7,109,444.1,108.7,443.4,108.6z M249.3,302.6c-0.7,0-1.3-0.1-1.9-0.3c-0.6-0.2-1.1-0.6-1.6-1.1c-0.5-0.5-0.8-1-1.1-1.7
	c-0.3-0.7-0.4-1.4-0.4-2.1V88.8c0-0.7,0.1-1.4,0.4-2.1c0.2-0.6,0.6-1.1,1.1-1.6c0.4-0.4,1-0.8,1.6-0.9c0.6-0.2,1.3-0.3,1.9-0.2
	l194.1,26.3c0.5,0.1,0.9,0.3,1.3,0.5c0.4,0.3,0.8,0.7,1.1,1.1c0.3,0.5,0.6,1,0.7,1.5c0.2,0.6,0.3,1.2,0.3,1.8v172.3
	c0,0.6-0.1,1.2-0.3,1.8c-0.2,0.5-0.4,1-0.7,1.5c-0.3,0.4-0.7,0.7-1.1,1c-0.4,0.2-0.9,0.4-1.3,0.4L249.3,302.6z"/>
<g id="b5e30cc8-5ae1-449e-85b5-4004b80a7a56">
	<path id="a649d73e-ec59-4c3e-8cce-1f940f947e89-218" class="st0" d="M242.9,326.8c-0.5,0.1-1,0.2-1.4,0.6c-0.5,0.3-0.9,0.8-1.2,1.3
		c-0.3,0.5-0.6,1.1-0.8,1.8c-0.2,0.7-0.3,1.4-0.3,2.1c0,0.7,0.1,1.3,0.3,2c0.2,0.6,0.4,1.1,0.8,1.6c0.3,0.4,0.7,0.8,1.1,1
		c0.4,0.2,0.9,0.3,1.4,0.3l339.8-28.1c0.3,0,0.5-0.1,0.7-0.3c0.2-0.2,0.4-0.5,0.6-0.8c0.2-0.4,0.3-0.8,0.4-1.2
		c0.1-0.5,0.2-1,0.2-1.5c0-0.5,0-1-0.1-1.4c-0.1-0.4-0.2-0.8-0.4-1.2c-0.1-0.3-0.3-0.6-0.6-0.8c-0.2-0.2-0.5-0.3-0.7-0.3h-0.1
		L242.9,326.8z"/>
</g>
<g id="a3d56c43-6c72-48a5-a1aa-00d4337a9f01">
	<path id="fcd1be7c-dd66-4ef0-bebb-a6cb75017f49-219" class="st0" d="M242.9,358.8c-0.5,0.1-1,0.3-1.4,0.6c-0.5,0.4-0.9,0.8-1.2,1.3
		c-0.3,0.6-0.6,1.2-0.8,1.8c-0.2,0.7-0.3,1.4-0.3,2.1c0,0.7,0.1,1.3,0.3,2c0.2,0.6,0.4,1.1,0.8,1.6c0.3,0.4,0.7,0.8,1.1,1
		c0.4,0.2,0.9,0.3,1.4,0.3l339.8-37.5c0.3,0,0.5-0.2,0.7-0.3c0.2-0.2,0.4-0.5,0.6-0.8c0.2-0.4,0.3-0.8,0.4-1.2
		c0.1-0.5,0.2-1,0.2-1.5c0-0.5,0-1-0.1-1.4c-0.1-0.4-0.2-0.8-0.4-1.2c-0.1-0.3-0.3-0.6-0.6-0.8c-0.2-0.2-0.5-0.3-0.7-0.2h-0.1
		L242.9,358.8z"/>
</g>
<g id="b86b841b-6efa-4245-8922-ec58e5370162">
	<path id="f8e452a4-70d1-4eed-9ead-ca836e74dca4-220" class="st0" d="M242.9,390.3c-0.5,0.1-1,0.3-1.4,0.6c-0.5,0.4-0.9,0.8-1.2,1.3
		c-0.3,0.6-0.6,1.2-0.8,1.8c-0.2,0.7-0.3,1.4-0.3,2.1c0,0.7,0.1,1.3,0.3,2c0.2,0.6,0.4,1.1,0.8,1.5c0.3,0.4,0.7,0.7,1.1,1
		c0.4,0.2,0.9,0.3,1.4,0.2l339.8-46.7c0.3,0,0.5-0.2,0.7-0.4c0.2-0.2,0.4-0.5,0.6-0.9c0.2-0.4,0.3-0.8,0.4-1.2
		c0.1-0.5,0.2-1,0.2-1.5c0-0.5,0-1-0.1-1.4c-0.1-0.4-0.2-0.8-0.4-1.1c-0.1-0.3-0.3-0.5-0.6-0.7c-0.2-0.2-0.5-0.2-0.7-0.2h-0.1
		L242.9,390.3z"/>
</g>
<path id="fb3cf623-4c27-484d-8f36-79433da26778-221" class="st1" d="M40.5,328.8l-19.4-0.2c-0.3,0-0.6,0-1,0.1
	c-0.3,0.1-0.6,0.2-0.8,0.4c-0.2,0.2-0.5,0.4-0.6,0.7c-0.2,0.3-0.3,0.6-0.4,0.9c-0.1,0.4,0,0.8,0.1,1.1c0.1,0.2,0.1,0.4,0.2,0.5
	c0.2,0.3,0.4,0.6,0.7,0.9c0.5,0.4,1,0.5,1.6,0.5l5.8,0.1c0.6,0,1.1,0.3,1.3,0.9c0.1,0.2,0.1,0.4,0.1,0.5v11.4c0,0.6,0.2,1.2,0.6,1.7
	c0.4,0.5,1,0.8,1.6,1c1.2,0.2,2.3-0.4,2.8-1.5c0.2-0.3,0.2-0.7,0.2-1.1v-11.5c0-0.8,0.6-1.4,1.4-1.4l0,0l5.6,0
	c1.3,0,2.4-0.9,2.7-2.1c0.2-1.4-0.7-2.8-2.1-3C40.7,328.8,40.6,328.8,40.5,328.8L40.5,328.8z"/>
<path id="a62d2508-f0bf-44ee-9014-84ffc49b2c41-222" class="st1" d="M40.5,344.2c1.4,0,2.6,1.2,2.6,2.6s-1.2,2.6-2.6,2.6
	c-1.4,0-2.6-1.2-2.6-2.6c0-0.3,0.1-0.7,0.2-1C38.5,344.8,39.4,344.2,40.5,344.2z"/>
<path class="st3" d="M495.1,192.6c-0.1,0.7-0.2,1.4-0.4,2.1l40.4,48.4l15.1-2.6l6.9,22.3l-26.3,7.2c-4.4,1.2-9-0.6-11.4-4.5
	l-37.6-61.1c-7.4,0-13.4-5.9-13.4-13.3s5.9-13.4,13.3-13.4c7.4,0,13.4,5.9,13.4,13.3C495.2,191.5,495.2,192,495.1,192.6z"/>
<path class="st4" d="M536.9,240.3c0.9-1.4,2.3-2.4,4-2.6l28.4-4.5c8.4-2.6,17.3,2,19.9,10.4c2.6,8.3-2,17.2-10.3,19.9L553,276.1
	c-2.8,1.4-6.3,0.2-7.7-2.6c-0.1-0.3-0.2-0.5-0.3-0.8l-8.7-27.6C535.8,243.5,536,241.8,536.9,240.3z"/>
<polygon class="st3" points="538.5,632.5 526.2,632.5 520.4,585.2 538.5,585.2 "/>
<path class="st5" d="M541.6,644.4l-39.5,0v-0.5c0-8.5,6.9-15.4,15.4-15.4h0l24.1,0L541.6,644.4z"/>
<polygon class="st3" points="666.5,632.5 654.2,632.5 648.4,585.2 666.5,585.2 "/>
<path class="st5" d="M669.6,644.4l-39.5,0v-0.5c0-8.5,6.9-15.4,15.4-15.4h0l24.1,0L669.6,644.4z"/>
<path class="st5" d="M543.3,344.5l53.1-15.4c19.4,13.7,32.7,41.2,28.4,76.8c-7,57.4,33.4,131.1,50.8,205.9l-30.1,0.9L579.6,455
	l-38.7,161.1l-26.9,0.8l18-221.8L543.3,344.5z"/>
<circle class="st3" cx="566.9" cy="177.5" r="27.5"/>
<path class="st4" d="M539,299.7c-6.1-10.7-9.1-23.6-3.8-34.7c1.3-2.8,5-5.4,6.9-7.9l21.2-31.7l24-3.9c20.7,17.4,3,76.9,20,115.9
	l-71,38C541.3,356.1,548.2,315.9,539,299.7z"/>
<path class="st5" d="M539.3,166.5c0,0,1.9-3.4,13,1c3.9,1.6,5.7,1.2,6,4.6c0.9,12.7,5.6,24.9,13.4,35l0.1,0.1l5.6-5.1l7.2,5.7
	l30.2,0.6c0,0,4.8-23.5-11.1-50.2S555,146.2,555,146.2C532.7,147.5,539.3,166.5,539.3,166.5z"/>
<path id="e3bc2865-e5cc-42bd-b905-26cd15d9eaa8-223" class="st2" d="M469.1,131.3L275,104.7c-0.9-0.1-1.8-0.1-2.7,0.2
	c-0.8,0.3-1.6,0.7-2.2,1.3c-0.6,0.6-1.1,1.4-1.5,2.2c-0.4,0.9-0.6,1.9-0.5,2.9v208.9c0,1,0.2,2,0.5,2.9c0.3,0.9,0.8,1.7,1.5,2.3
	c0.6,0.6,1.4,1.2,2.2,1.5c0.8,0.3,1.8,0.5,2.7,0.4l194.1-10.7c0.7,0,1.3-0.2,1.8-0.6c0.6-0.4,1.1-0.9,1.5-1.4c0.4-0.6,0.8-1.3,1-2
	c0.2-0.8,0.4-1.6,0.4-2.4v-172c0-0.8-0.1-1.7-0.4-2.5c-0.2-0.8-0.6-1.5-1-2.1c-0.4-0.6-0.9-1.1-1.5-1.5
	C470.4,131.7,469.8,131.4,469.1,131.3z"/>
<path id="b68ff6b4-7e21-4c16-926b-abc7c0c87ae6-224" class="st6" d="M469.1,131.3L275,104.7c-0.9-0.1-1.8-0.1-2.7,0.2
	c-0.8,0.3-1.6,0.7-2.2,1.3c-0.6,0.6-1.1,1.4-1.5,2.2c-0.4,0.9-0.6,1.9-0.5,2.9v208.9c0,1,0.2,2,0.5,2.9c0.3,0.9,0.8,1.7,1.5,2.3
	c0.6,0.6,1.4,1.2,2.2,1.5c0.8,0.3,1.8,0.5,2.7,0.4l194.1-10.7c0.7,0,1.3-0.2,1.8-0.6c0.6-0.4,1.1-0.9,1.5-1.4c0.4-0.6,0.8-1.3,1-2
	c0.2-0.8,0.4-1.6,0.4-2.4v-172c0-0.8-0.1-1.7-0.4-2.5c-0.2-0.8-0.6-1.5-1-2.1c-0.4-0.6-0.9-1.1-1.5-1.5
	C470.4,131.7,469.8,131.4,469.1,131.3z"/>
<path id="b6d259d0-7a66-4dd7-a2f5-b1dbe4f4dee1-225" class="st2" d="M477.1,131.3L283,104.7c-0.9-0.1-1.8-0.1-2.7,0.2
	c-0.8,0.3-1.6,0.7-2.2,1.3c-0.6,0.6-1.1,1.4-1.5,2.2c-0.4,0.9-0.6,1.9-0.5,2.9v208.9c0,1,0.2,2,0.5,2.9c0.3,0.9,0.8,1.7,1.5,2.3
	c0.6,0.6,1.4,1.2,2.2,1.5c0.8,0.3,1.8,0.5,2.7,0.4l194.1-10.7c0.7,0,1.3-0.2,1.8-0.6c0.6-0.4,1.1-0.9,1.5-1.4c0.4-0.6,0.8-1.3,1-2
	c0.2-0.8,0.4-1.6,0.4-2.4v-172c0-0.8-0.1-1.7-0.4-2.5c-0.2-0.8-0.6-1.5-1-2.1c-0.4-0.6-0.9-1.1-1.5-1.5
	C478.4,131.7,477.8,131.4,477.1,131.3z"/>
<path class="st3" d="M476.3,298.4c0.5,0.5,1,1,1.5,1.5l62.8-6.4l6.3-14l22.3,6.7l-8.7,25.8c-1.5,4.3-5.6,7.1-10.1,6.9l-71.7-3.1
	c-4.1,6.1-12.4,7.8-18.5,3.6c-6.1-4.1-7.8-12.4-3.6-18.5c4.1-6.1,12.4-7.8,18.5-3.6C475.4,297.7,475.9,298,476.3,298.4L476.3,298.4z
	"/>
<path class="st4" d="M539.3,290.5c-0.7-1.5-0.7-3.3,0-4.8l12.1-26c2.5-8.4,11.3-13.2,19.8-10.7c8.4,2.5,13.2,11.3,10.7,19.7
	l-4.1,28.5c-0.4,3.1-3.3,5.3-6.5,4.9c-0.3,0-0.6-0.1-0.8-0.2l-27.7-8.2C541.3,293.2,539.9,292,539.3,290.5z"/>
<path class="st0" d="M834.5,645.5h-381c-0.6,0-1-0.4-1-1s0.4-1,1-1h381c0.6,0,1,0.4,1,1S835,645.5,834.5,645.5z"/>
</svg>
