<?xml version="1.0" encoding="UTF-8"?><svg id="a" xmlns="http://www.w3.org/2000/svg" viewBox="0 0 500 500"><defs><style>.b{fill:#fff;}</style></defs><path class="b" d="M220.83,435.8s-.03,0-.05,0c-1.01-.03-1.81-.87-1.78-1.88l.67-23.93c.03-1.01,.83-1.83,1.88-1.78,1.01,.03,1.81,.87,1.78,1.88l-.67,23.93c-.03,.99-.84,1.78-1.83,1.78Z"/><path class="b" d="M162.8,239.84c-.84,0-1.6-.58-1.79-1.44l-1.75-8.09c-.21-.99,.41-1.96,1.4-2.17,.99-.21,1.96,.41,2.17,1.4l1.75,8.09c.21,.99-.41,1.96-1.4,2.17-.13,.03-.26,.04-.39,.04Z"/><path class="b" d="M98.73,458.81c-.75,0-1.46-.47-1.72-1.22l-2.77-7.79c-.34-.95,.16-2,1.11-2.34,.95-.34,2,.16,2.34,1.11l2.77,7.79c.34,.95-.16,2-1.11,2.34-.2,.07-.41,.11-.61,.11Z"/><path class="b" d="M314.92,341.17c-.19,0-.38-.03-.57-.09l-14.62-4.82c-.96-.32-1.48-1.35-1.16-2.31,.32-.96,1.35-1.48,2.31-1.16l14.62,4.82c.96,.32,1.48,1.35,1.16,2.31-.25,.77-.97,1.26-1.74,1.26Z"/><path class="b" d="M445.66,285.53c-.37,0-.74-.11-1.06-.34l-6.51-4.64c-.82-.59-1.01-1.73-.43-2.55,.58-.82,1.73-1.02,2.55-.43l6.51,4.64c.82,.58,1.01,1.73,.43,2.55-.36,.5-.92,.77-1.49,.77Z"/><path class="b" d="M369.79,11.17c-.33,0-.66-.09-.96-.27l-9.31-5.76c-.86-.53-1.12-1.66-.59-2.52s1.66-1.12,2.52-.59l9.31,5.76c.86,.53,1.12,1.66,.59,2.52-.35,.56-.94,.87-1.56,.87Z"/><path class="b" d="M264.62,256.48c-.67,0-1.32-.37-1.64-1.01-.45-.9-.08-2,.82-2.45l6.93-3.45c.9-.45,2-.08,2.45,.82,.45,.9,.08,2-.82,2.45l-6.93,3.45c-.26,.13-.54,.19-.81,.19Z"/><path class="b" d="M66.11,274.53c-.32,0-.65-.09-.95-.27-.86-.53-1.13-1.65-.61-2.51l9.77-15.99c.53-.86,1.65-1.13,2.51-.61,.86,.53,1.13,1.65,.61,2.51l-9.77,15.99c-.34,.56-.95,.88-1.56,.88Z"/><path class="b" d="M68.6,11.22c-.95,0-1.75-.74-1.82-1.7-.07-1.01,.69-1.88,1.69-1.95l27.44-1.96c1.03-.05,1.88,.69,1.95,1.69,.07,1.01-.69,1.88-1.69,1.95l-27.44,1.96s-.09,0-.13,0Z"/><path class="b" d="M458.66,198.47c-.59,0-1.17-.28-1.52-.81l-4.51-6.7c-.56-.84-.34-1.97,.5-2.54,.84-.56,1.97-.34,2.54,.5l4.51,6.7c.56,.84,.34,1.97-.5,2.54-.31,.21-.67,.31-1.02,.31Z"/><path class="b" d="M200.2,216.47c-.49,0-.97-.19-1.33-.58-.69-.73-.66-1.89,.08-2.59l3.48-3.28c.73-.69,1.89-.66,2.59,.08,.69,.73,.66,1.89-.08,2.59l-3.48,3.28c-.35,.33-.8,.5-1.25,.5Z"/><path class="b" d="M455.52,112.32c-.14,0-.29-.02-.43-.05-.98-.24-1.59-1.23-1.35-2.21l1.45-6.01c.24-.98,1.23-1.59,2.21-1.35,.98,.24,1.59,1.23,1.35,2.21l-1.45,6.01c-.2,.84-.95,1.4-1.78,1.4Z"/><path class="b" d="M120.5,336.01c-.31,0-.62-.08-.91-.24l-4.84-2.77c-.88-.5-1.18-1.62-.68-2.5,.5-.88,1.62-1.18,2.5-.68l4.84,2.77c.88,.5,1.18,1.62,.68,2.5-.34,.59-.95,.92-1.59,.92Z"/><path class="b" d="M490.1,232.89c-.08,0-.15,0-.23-.01l-4.84-.6c-1-.12-1.72-1.04-1.59-2.04,.12-1,1.05-1.71,2.04-1.59l4.84,.6c1,.12,1.72,1.04,1.59,2.04-.11,.93-.9,1.61-1.81,1.61Z"/><path class="b" d="M404.21,258.08c-.35,0-.7-.1-1.02-.31l-14.71-9.87c-.84-.56-1.06-1.7-.5-2.54,.56-.84,1.7-1.06,2.54-.5l14.71,9.86c.84,.56,1.06,1.7,.5,2.54-.35,.53-.93,.81-1.52,.81Z"/><path class="b" d="M232.94,13.9c-.66,0-1.3-.36-1.63-.99-.46-.9-.11-2,.78-2.47l12.26-6.35c.9-.46,2-.11,2.47,.78,.46,.9,.11,2-.78,2.47l-12.26,6.35c-.27,.14-.56,.2-.84,.2Z"/><path class="b" d="M347.19,190.29c-.23,0-.47-.05-.7-.14l-10.34-4.31c-.93-.39-1.37-1.46-.99-2.39,.39-.93,1.46-1.37,2.39-.99l10.34,4.31c.93,.39,1.37,1.46,.99,2.39-.29,.7-.97,1.13-1.69,1.13Z"/><path class="b" d="M204.58,28.88c-.66,0-1.3-.36-1.62-.98l-10.62-20.31c-.47-.89-.12-2,.77-2.47,.9-.47,2-.12,2.47,.77l10.62,20.31c.47,.89,.12,2-.77,2.47-.27,.14-.56,.21-.85,.21Z"/><path class="b" d="M233.02,239.39c-.97,0-1.78-.77-1.83-1.75l-.3-6.71c-.04-1.01,.74-1.86,1.75-1.91,1-.03,1.86,.74,1.91,1.75l.3,6.71c.04,1.01-.74,1.86-1.75,1.91-.03,0-.05,0-.08,0Z"/><path class="b" d="M398.7,14.28c-.3,0-.6-.07-.88-.23-.88-.49-1.21-1.6-.72-2.48l3.5-6.36c.49-.88,1.6-1.2,2.48-.72,.88,.49,1.21,1.6,.72,2.48l-3.5,6.36c-.33,.61-.96,.95-1.6,.95Z"/><path class="b" d="M450.01,456.31c-.9,0-1.69-.67-1.81-1.58l-1.88-13.88c-.14-1,.57-1.92,1.57-2.06,1-.15,1.92,.56,2.06,1.57l1.89,13.88c.14,1-.57,1.92-1.57,2.06-.08,.01-.17,.02-.25,.02Z"/><path class="b" d="M374.68,398.09c-.82,0-1.56-.55-1.77-1.38l-1.98-7.74c-.25-.98,.34-1.97,1.32-2.22,.98-.25,1.97,.34,2.22,1.32l1.98,7.74c.25,.98-.34,1.97-1.32,2.22-.15,.04-.3,.06-.45,.06Z"/><path class="b" d="M137.97,425.12c-.37,0-.75-.11-1.08-.35-.82-.59-.99-1.74-.4-2.55l16.36-22.42c.59-.82,1.74-1,2.55-.4,.82,.59,.99,1.74,.4,2.55l-16.36,22.42c-.36,.49-.91,.75-1.48,.75Z"/><path class="b" d="M434.35,24.34c-.1,0-.21,0-.31-.03-1-.17-1.66-1.12-1.49-2.11l2.47-14.3c.17-.99,1.11-1.67,2.11-1.49,1,.17,1.66,1.12,1.49,2.11l-2.47,14.3c-.15,.89-.93,1.52-1.8,1.52Z"/><path class="b" d="M452.15,66.51c-.87,0-1.64-.62-1.8-1.5l-1.52-8.39c-.18-.99,.48-1.94,1.47-2.12,.99-.18,1.94,.48,2.12,1.47l1.52,8.39c.18,.99-.48,1.94-1.47,2.12-.11,.02-.22,.03-.33,.03Z"/><path class="b" d="M136.73,475.32c-.89,0-1.66-.64-1.8-1.55l-3.79-24.33c-.16-1,.53-1.93,1.53-2.09,.99-.15,1.93,.53,2.09,1.53l3.79,24.33c.16,1-.53,1.93-1.53,2.09-.1,.01-.19,.02-.28,.02Z"/><path class="b" d="M7.79,377.81c-.3,0-.6-.07-.88-.23-.88-.49-1.21-1.6-.72-2.48l3.21-5.81c.49-.88,1.6-1.21,2.48-.72,.88,.49,1.21,1.6,.72,2.48l-3.21,5.81c-.33,.6-.96,.95-1.6,.95Z"/><path class="b" d="M479.86,356.08c-.88,0-1.66-.64-1.8-1.53l-2.53-15.48c-.16-1,.51-1.94,1.51-2.1,1-.16,1.94,.51,2.1,1.51l2.53,15.48c.16,1-.51,1.94-1.51,2.1-.1,.02-.2,.02-.3,.02Z"/><path class="b" d="M298.14,184.82c-.58,0-1.15-.27-1.5-.78-.58-.83-.37-1.97,.45-2.55l4.59-3.2c.83-.58,1.97-.37,2.55,.45,.58,.83,.37,1.97-.45,2.55l-4.59,3.2c-.32,.22-.68,.33-1.04,.33Z"/><path class="b" d="M260.39,49.58c-.64,0-1.26-.34-1.6-.93l-2.82-5.02c-.49-.88-.18-1.99,.7-2.49,.88-.49,2-.18,2.49,.7l2.82,5.02c.49,.88,.18,1.99-.7,2.49-.28,.16-.59,.23-.89,.23Z"/><path class="b" d="M169.08,195.33c-.33,0-.66-.09-.96-.27-.86-.53-1.12-1.66-.59-2.52l7.91-12.79c.53-.86,1.66-1.12,2.52-.59,.86,.53,1.12,1.66,.59,2.52l-7.91,12.79c-.35,.56-.94,.87-1.56,.87Z"/><path class="b" d="M407.29,459.83c-.84,0-1.6-.58-1.78-1.44-.22-.99,.41-1.96,1.39-2.18l7.38-1.62c.98-.22,1.96,.41,2.18,1.39,.22,.99-.41,1.96-1.39,2.18l-7.38,1.62c-.13,.03-.26,.04-.39,.04Z"/><path class="b" d="M201.04,256.06c-.34,0-.68-.09-.98-.29l-6.76-4.3c-.85-.54-1.1-1.67-.56-2.52,.54-.85,1.67-1.1,2.52-.56l6.76,4.3c.85,.54,1.1,1.67,.56,2.52-.35,.55-.94,.85-1.54,.85Z"/><path class="b" d="M238.68,375.45c-.8,0-1.54-.53-1.76-1.35-.27-.97,.31-1.98,1.28-2.25l17.53-4.81c.97-.27,1.98,.31,2.25,1.28,.27,.97-.31,1.98-1.28,2.25l-17.53,4.81c-.16,.04-.33,.07-.49,.07Z"/><path class="b" d="M12.48,207.19c-.18,0-.36-.03-.54-.08l-5.29-1.62c-.97-.29-1.51-1.32-1.21-2.28,.3-.97,1.32-1.51,2.28-1.21l5.29,1.62c.97,.29,1.51,1.32,1.21,2.28-.24,.79-.97,1.29-1.75,1.29Z"/><path class="b" d="M237.49,295.64c-.72,0-1.4-.43-1.69-1.13l-6.39-15.47c-.39-.93,.06-2,.99-2.39,.94-.39,2,.06,2.39,.99l6.39,15.47c.39,.93-.06,2-.99,2.39-.23,.09-.47,.14-.7,.14Z"/><path class="b" d="M416.41,195.64c-.63,0-1.24-.33-1.58-.91-.51-.87-.21-1.99,.66-2.5l4.2-2.44c.87-.51,1.99-.21,2.5,.66,.51,.87,.21,1.99-.66,2.5l-4.2,2.44c-.29,.17-.6,.25-.92,.25Z"/><path class="b" d="M370.84,49.76c-.62,0-1.22-.31-1.57-.88l-6.03-9.96c-.52-.86-.25-1.99,.62-2.51,.86-.52,1.99-.25,2.51,.62l6.03,9.96c.52,.86,.25,1.99-.62,2.51-.3,.18-.62,.26-.95,.26Z"/><path class="b" d="M5.34,282.28c-.07,0-.13,0-.2-.01-1-.11-1.73-1.01-1.62-2.01l.56-5.25c.11-1,1.01-1.74,2.01-1.62,1,.11,1.73,1.01,1.62,2.01l-.56,5.25c-.1,.94-.89,1.63-1.82,1.63Z"/><path class="b" d="M480.42,420.36c-.9,0-1.69-.67-1.81-1.59-.13-1,.57-1.92,1.57-2.05l14.51-1.91c.99-.13,1.92,.57,2.05,1.57,.13,1-.57,1.92-1.57,2.05l-14.51,1.91c-.08,.01-.16,.02-.24,.02Z"/><path class="b" d="M128.91,254.06c-.34,0-.69-.1-1-.3l-15.28-9.94c-.85-.55-1.09-1.68-.54-2.53,.55-.85,1.68-1.09,2.53-.54l15.28,9.94c.85,.55,1.09,1.68,.54,2.53-.35,.54-.94,.83-1.54,.83Z"/><path class="b" d="M54.65,139.91c-.22,0-.45-.04-.68-.13l-17.7-7.06c-.94-.37-1.4-1.44-1.02-2.38,.37-.94,1.44-1.4,2.38-1.02l17.7,7.06c.94,.37,1.4,1.44,1.02,2.38-.28,.72-.97,1.15-1.7,1.15Z"/><path class="b" d="M9.39,170.91c-.09,0-.18,0-.27-.02-1-.15-1.69-1.08-1.54-2.07l1-6.86c.15-1,1.07-1.7,2.07-1.54,1,.15,1.69,1.08,1.54,2.07l-1,6.86c-.13,.91-.91,1.56-1.81,1.56Z"/><path class="b" d="M99.23,485.86c-.16,0-.32-.02-.49-.07l-10.22-2.8c-.97-.27-1.55-1.27-1.28-2.25,.27-.97,1.27-1.55,2.25-1.28l10.22,2.8c.97,.27,1.55,1.27,1.28,2.25-.22,.81-.96,1.35-1.76,1.35Z"/><path class="b" d="M484.92,492.13c-.65,0-1.28-.35-1.61-.96l-2.72-5.06c-.48-.89-.14-2,.74-2.48,.89-.48,2-.14,2.48,.74l2.72,5.06c.48,.89,.14,2-.74,2.48-.28,.15-.57,.22-.86,.22Z"/><path class="b" d="M323.8,274.01c-.44,0-.89-.16-1.24-.48l-13.73-12.62c-.74-.68-.79-1.84-.11-2.58,.68-.74,1.84-.79,2.58-.11l13.73,12.62c.74,.68,.79,1.84,.11,2.58-.36,.39-.85,.59-1.35,.59Z"/><path class="b" d="M129.87,378.09c-.09,0-.18,0-.28-.02-1-.15-1.69-1.08-1.54-2.08l1.39-9.18c.15-1,1.08-1.69,2.08-1.53,1,.15,1.69,1.08,1.54,2.08l-1.39,9.18c-.14,.91-.92,1.56-1.81,1.56Z"/><path class="b" d="M394.31,344.11c-.88,0-1.66-.64-1.8-1.54-.16-1,.52-1.93,1.52-2.09l4.98-.79c1-.15,1.93,.52,2.09,1.52,.16,1-.52,1.93-1.52,2.09l-4.98,.79c-.1,.02-.19,.02-.29,.02Z"/><path class="b" d="M35.63,295.65c-.41,0-.82-.14-1.16-.42-.78-.64-.89-1.79-.25-2.57l3.94-4.8c.64-.78,1.79-.89,2.57-.25,.78,.64,.89,1.79,.25,2.57l-3.94,4.8c-.36,.44-.89,.67-1.41,.67Z"/><path class="b" d="M486.53,127.29c-.06,0-.13,0-.19,0l-5.92-.63c-1-.11-1.73-1.01-1.63-2.01,.11-1,.99-1.73,2.01-1.63l5.92,.63c1,.11,1.73,1.01,1.63,2.01-.1,.94-.89,1.64-1.82,1.64Z"/><path class="b" d="M329.85,14.82c-.67,0-1.32-.37-1.64-1.02l-3.57-7.2c-.45-.9-.08-2,.83-2.45,.91-.45,2-.08,2.45,.83l3.57,7.2c.45,.9,.08,2-.83,2.45-.26,.13-.54,.19-.81,.19Z"/><path class="b" d="M68.78,100.17c-.18,0-.36-.03-.53-.08l-20.27-6.19c-.97-.3-1.51-1.32-1.22-2.28,.3-.97,1.32-1.51,2.28-1.22l20.27,6.19c.97,.3,1.51,1.32,1.22,2.28-.24,.79-.97,1.3-1.75,1.3Z"/><path class="b" d="M479.92,181.66c-.19,0-.39-.03-.58-.1-.96-.32-1.47-1.36-1.15-2.32l4.17-12.44c.32-.96,1.36-1.47,2.32-1.15,.96,.32,1.47,1.36,1.15,2.32l-4.17,12.44c-.26,.77-.97,1.25-1.73,1.25Z"/><path class="b" d="M456.15,498.23c-.34,0-.68-.09-.98-.29-.85-.54-1.1-1.67-.56-2.52l6.04-9.49c.54-.85,1.67-1.11,2.52-.56,.85,.54,1.1,1.67,.56,2.52l-6.04,9.49c-.35,.55-.94,.85-1.54,.85Z"/><path class="b" d="M264.53,410.31c-.51,0-1.03-.22-1.39-.64l-7.31-8.51c-.66-.77-.57-1.92,.19-2.58,.77-.66,1.92-.57,2.58,.19l7.31,8.51c.66,.77,.57,1.92-.19,2.58-.35,.3-.77,.44-1.19,.44Z"/><path class="b" d="M14.66,242.16c-.91,0-1.7-.68-1.81-1.61-.12-1,.59-1.91,1.59-2.04l22.86-2.78c.99-.12,1.91,.59,2.04,1.59,.12,1-.59,1.91-1.59,2.04l-22.86,2.78c-.07,0-.15,.01-.22,.01Z"/><path class="b" d="M354.74,153.95c-.86,0-1.63-.61-1.8-1.49l-2.7-14.51c-.19-.99,.47-1.95,1.46-2.13,.99-.19,1.95,.47,2.13,1.46l2.7,14.51c.19,.99-.47,1.95-1.46,2.13-.11,.02-.23,.03-.34,.03Z"/><path class="b" d="M164.81,336.08c-.43,0-.86-.15-1.2-.45l-13.03-11.41c-.76-.67-.84-1.82-.17-2.58,.67-.76,1.82-.84,2.58-.17l13.03,11.41c.76,.67,.84,1.82,.17,2.58-.36,.41-.87,.62-1.38,.62Z"/><path class="b" d="M371.49,444.59c-.25,0-.5-.05-.75-.16-.92-.41-1.33-1.5-.92-2.42l6.29-14.01c.41-.92,1.49-1.34,2.42-.92,.92,.41,1.33,1.5,.92,2.42l-6.29,14.01c-.3,.68-.97,1.08-1.67,1.08Z"/><path class="b" d="M291.47,101.74c-.79,0-1.52-.52-1.76-1.32l-6.98-24.14c-.28-.97,.28-1.98,1.25-2.26,.97-.28,1.98,.28,2.26,1.25l6.98,24.14c.28,.97-.28,1.98-1.25,2.26-.17,.05-.34,.07-.51,.07Z"/><path class="b" d="M118.45,299.55c-.56,0-1.11-.25-1.47-.73l-10.91-14.58c-.6-.81-.44-1.95,.37-2.56,.81-.61,1.96-.44,2.56,.37l10.91,14.58c.6,.81,.44,1.95-.37,2.56-.33,.25-.71,.36-1.09,.36Z"/><path class="b" d="M7.13,131.32c-.98,0-1.79-.77-1.83-1.75l-.72-17.85c-.04-1.01,.74-1.86,1.75-1.9,.98-.03,1.86,.74,1.9,1.75l.73,17.85c.04,1.01-.74,1.86-1.75,1.9-.03,0-.05,0-.07,0Z"/><path class="b" d="M330.51,310.84c-.44,0-.88-.16-1.23-.48-.75-.68-.8-1.84-.12-2.58l4.15-4.55c.68-.75,1.84-.8,2.58-.12,.75,.68,.8,1.84,.12,2.58l-4.15,4.55c-.36,.4-.86,.6-1.35,.6Z"/><path class="b" d="M304.38,230.76c-.2,0-.4-.03-.6-.1-.95-.33-1.46-1.38-1.12-2.33l5.76-16.45c.33-.95,1.37-1.45,2.33-1.12,.95,.33,1.46,1.38,1.12,2.33l-5.76,16.45c-.26,.75-.97,1.23-1.73,1.23Z"/><path class="b" d="M416.82,306.79c-.23,0-.46-.04-.69-.13l-21.51-8.73c-.94-.38-1.39-1.45-1.01-2.38,.38-.94,1.44-1.39,2.38-1.01l21.51,8.73c.94,.38,1.39,1.45,1.01,2.38-.29,.71-.97,1.14-1.7,1.14Z"/><path class="b" d="M382.05,211.73c-.9,0-1.68-.67-1.81-1.58l-1.66-12.19c-.14-1,.56-1.92,1.57-2.06,.99-.14,1.92,.56,2.06,1.57l1.66,12.19c.14,1-.56,1.92-1.57,2.06-.08,.01-.17,.02-.25,.02Z"/><path class="b" d="M101.2,152.89c-.25,0-.5-.05-.75-.16l-18.74-8.39c-.92-.41-1.33-1.49-.92-2.42,.41-.92,1.5-1.33,2.42-.92l18.74,8.39c.92,.41,1.33,1.49,.92,2.42-.3,.68-.97,1.08-1.67,1.08Z"/><path class="b" d="M211.4,359.26c-.12,0-.24-.01-.36-.04-.99-.2-1.63-1.16-1.43-2.15l4.41-21.83c.2-.99,1.16-1.63,2.15-1.43,.99,.2,1.63,1.16,1.43,2.15l-4.41,21.83c-.18,.87-.94,1.47-1.79,1.47Z"/><path class="b" d="M219.3,61.92c-.74,0-1.44-.46-1.72-1.2-.35-.95,.14-2,1.09-2.35l8.18-3c.95-.35,2,.14,2.35,1.09,.35,.95-.14,2-1.09,2.35l-8.18,3c-.21,.08-.42,.11-.63,.11Z"/><path class="b" d="M218.67,180.68c-1,0-1.82-.81-1.83-1.81,0-1.01,.8-1.84,1.81-1.84l20.36-.17c1.08-.05,1.84,.8,1.84,1.81,0,1.01-.8,1.84-1.81,1.84l-20.36,.17h-.02Z"/><path class="b" d="M434.66,349.77c-.17,0-.34-.02-.51-.07-.97-.28-1.53-1.3-1.25-2.27l7.11-24.52c.28-.97,1.3-1.53,2.27-1.25,.97,.28,1.53,1.3,1.25,2.27l-7.11,24.52c-.23,.8-.96,1.32-1.76,1.32Z"/><path class="b" d="M409.73,421.41c-.73,0-1.42-.44-1.7-1.16-.37-.94,.09-2,1.03-2.37l11.94-4.7c.94-.37,2,.09,2.37,1.03,.37,.94-.09,2-1.03,2.37l-11.94,4.7c-.22,.09-.45,.13-.67,.13Z"/><path class="b" d="M334.11,112.88c-.59,0-1.16-.28-1.52-.8l-3.58-5.29c-.57-.84-.35-1.97,.49-2.54,.84-.57,1.97-.35,2.54,.49l3.58,5.29c.57,.84,.35,1.97-.49,2.54-.31,.21-.67,.31-1.02,.31Z"/><path class="b" d="M194.64,152.12c-.64,0-1.26-.33-1.59-.93l-10.31-18.29c-.5-.88-.18-2,.69-2.49,.88-.5,1.99-.18,2.49,.69l10.31,18.29c.5,.88,.18,2-.69,2.49-.28,.16-.59,.24-.9,.24Z"/><path class="b" d="M290.78,301.73c-.46,0-.92-.17-1.27-.51l-11.59-11.21c-.73-.7-.74-1.86-.04-2.59,.7-.73,1.86-.75,2.59-.04l11.59,11.21c.73,.7,.74,1.86,.04,2.59-.36,.37-.84,.56-1.31,.56Z"/><path class="b" d="M338.88,370.87c-.52,0-1.04-.22-1.4-.66-.65-.78-.54-1.93,.23-2.58l16.4-13.7c.77-.65,1.93-.54,2.58,.23,.65,.78,.54,1.93-.23,2.58l-16.4,13.7c-.34,.29-.76,.43-1.17,.43Z"/><path class="b" d="M105.63,417.31c-.11,0-.22,0-.34-.03l-7.87-1.48c-.99-.19-1.65-1.14-1.46-2.13,.19-.99,1.15-1.65,2.13-1.46l7.87,1.48c.99,.19,1.65,1.14,1.46,2.13-.17,.88-.93,1.49-1.8,1.49Z"/><path class="b" d="M193.57,460.35c-.29,0-.59-.07-.87-.22l-22.48-12.19c-.89-.48-1.22-1.59-.74-2.48,.48-.89,1.59-1.22,2.48-.74l22.48,12.19c.89,.48,1.22,1.59,.74,2.48-.33,.61-.96,.96-1.61,.96Z"/><path class="b" d="M315.34,149.25c-.41,0-.83-.14-1.17-.42l-11-9.16c-.78-.65-.88-1.8-.24-2.58,.65-.78,1.8-.88,2.58-.24l11,9.16c.78,.65,.88,1.8,.24,2.58-.36,.43-.88,.66-1.41,.66Z"/><path class="b" d="M98.42,74.56c-.94,0-1.73-.71-1.82-1.66l-2.54-27.51c-.09-1.01,.65-1.9,1.65-1.99,1.01-.1,1.9,.65,1.99,1.65l2.54,27.51c.09,1.01-.65,1.9-1.65,1.99-.06,0-.11,0-.17,0Z"/><path class="b" d="M258.88,445.05c-.18,0-.37-.03-.55-.09l-4.41-1.41c-.96-.31-1.49-1.33-1.19-2.3,.31-.96,1.34-1.49,2.3-1.19l4.41,1.4c.96,.31,1.49,1.33,1.19,2.3-.25,.78-.97,1.28-1.74,1.28Z"/><path class="b" d="M232.8,141.74c-.43,0-.87-.15-1.22-.47l-3.77-3.38c-.75-.68-.81-1.83-.14-2.58,.67-.75,1.83-.82,2.58-.14l3.77,3.38c.75,.68,.81,1.83,.14,2.58-.36,.4-.86,.61-1.36,.61Z"/><path class="b" d="M365.81,280.75c-.59,0-1.16-.28-1.52-.81l-6.69-9.92c-.56-.84-.34-1.97,.49-2.54,.84-.56,1.97-.34,2.54,.49l6.69,9.92c.56,.84,.34,1.97-.49,2.54-.31,.21-.67,.31-1.02,.31Z"/><path class="b" d="M480.96,80.79s-.07,0-.11,0c-1.01-.06-1.78-.92-1.72-1.93l1.46-24.9c.06-1.01,.94-1.79,1.93-1.72,1.01,.06,1.78,.92,1.72,1.93l-1.46,24.9c-.06,.97-.86,1.72-1.82,1.72Z"/><path class="b" d="M293.49,40.49c-.88,0-1.66-.64-1.8-1.53-.16-1,.51-1.94,1.51-2.1l15.68-2.56c.99-.16,1.94,.51,2.1,1.51,.16,1-.51,1.94-1.51,2.1l-15.68,2.56c-.1,.02-.2,.02-.3,.02Z"/><path class="b" d="M341.01,414.55c-.27,0-.54-.06-.8-.19l-18.03-8.84c-.91-.44-1.28-1.54-.84-2.45,.44-.91,1.54-1.28,2.45-.84l18.03,8.84c.91,.44,1.28,1.54,.84,2.45-.32,.65-.97,1.02-1.64,1.02Z"/><path class="b" d="M268.53,216.03c-.51,0-1.02-.21-1.38-.63l-9.97-11.47c-.66-.76-.58-1.92,.18-2.58,.76-.66,1.92-.58,2.58,.18l9.97,11.47c.66,.76,.58,1.92-.18,2.58-.35,.3-.77,.45-1.2,.45Z"/><path class="b" d="M366.3,323.16c-.15,0-.3-.02-.45-.06-.98-.25-1.57-1.24-1.32-2.22l1.47-5.77c.25-.98,1.24-1.58,2.22-1.32,.98,.25,1.57,1.24,1.32,2.22l-1.47,5.77c-.21,.83-.95,1.38-1.77,1.38Z"/><path class="b" d="M95,382.72c-.84,0-1.6-.58-1.78-1.44l-5.55-25.16c-.22-.99,.41-1.96,1.39-2.18,.98-.22,1.96,.41,2.18,1.39l5.55,25.16c.22,.99-.41,1.96-1.39,2.18-.13,.03-.27,.04-.4,.04Z"/><path class="b" d="M229.51,482.2c-.48,0-.97-.19-1.33-.57-.69-.73-.66-1.89,.07-2.59l10.68-10.1c.73-.69,1.89-.66,2.59,.07,.69,.73,.66,1.89-.07,2.59l-10.68,10.1c-.35,.33-.81,.5-1.26,.5Z"/><path class="b" d="M86.04,224.44c-.49,0-.97-.19-1.33-.58l-13.97-14.91c-.69-.74-.65-1.89,.08-2.59,.74-.69,1.9-.65,2.59,.08l13.97,14.91c.69,.74,.65,1.89-.08,2.59-.35,.33-.8,.49-1.25,.49Z"/><path class="b" d="M414.1,378.27c-.05,0-.1,0-.15,0l-13.53-1.14c-1.01-.08-1.75-.97-1.67-1.98,.08-1.01,.96-1.76,1.98-1.67l13.53,1.14c1.01,.08,1.75,.97,1.67,1.98-.08,.95-.88,1.68-1.82,1.68Z"/><path class="b" d="M425.17,232.8c-.8,0-1.54-.53-1.76-1.35-.27-.98,.31-1.98,1.28-2.25l13.28-3.62c.98-.27,1.98,.31,2.25,1.28,.27,.98-.31,1.98-1.28,2.25l-13.28,3.62c-.16,.04-.32,.07-.48,.07Z"/><path class="b" d="M424.89,485.03c-.65,0-1.29-.35-1.62-.97-.47-.89-.14-2,.76-2.47l6.4-3.41c.89-.48,2-.13,2.47,.76,.47,.89,.14,2-.76,2.47l-6.4,3.41c-.27,.15-.57,.21-.86,.21Z"/><path class="b" d="M455.66,158.74c-.26,0-.53-.06-.78-.18l-25.74-12.26c-.91-.43-1.3-1.53-.87-2.44,.43-.91,1.53-1.3,2.44-.87l25.74,12.26c.91,.43,1.3,1.53,.87,2.44-.31,.66-.97,1.04-1.65,1.04Z"/><path class="b" d="M332.38,459.16c-.39,0-.78-.12-1.11-.37-.8-.61-.96-1.76-.35-2.56l6.77-8.89c.61-.8,1.76-.96,2.56-.35,.8,.61,.96,1.76,.35,2.56l-6.77,8.89c-.36,.47-.9,.72-1.46,.72Z"/><path class="b" d="M418.75,108.28c-.06,0-.11,0-.17,0-1.01-.09-1.75-.98-1.65-1.99l1.14-12.37c.09-1.01,.99-1.75,1.99-1.65,1.01,.09,1.75,.98,1.65,1.99l-1.14,12.37c-.09,.95-.88,1.66-1.82,1.66Z"/><path class="b" d="M380.63,104.5c-.52,0-1.04-.22-1.4-.65l-14.52-17.29c-.65-.77-.55-1.93,.22-2.58,.77-.65,1.93-.55,2.58,.22l14.52,17.29c.65,.77,.55,1.93-.22,2.58-.34,.29-.76,.43-1.18,.43Z"/><path class="b" d="M41.74,186.26c-.64,0-1.27-.34-1.6-.94-.49-.88-.17-2,.71-2.49l14.99-8.32c.88-.49,2-.17,2.49,.71,.49,.88,.17,2-.71,2.49l-14.99,8.32c-.28,.16-.59,.23-.89,.23Z"/><path class="b" d="M159.53,15.72c-.88,0-1.65-.63-1.8-1.53l-1.64-9.87c-.17-1,.51-1.94,1.5-2.1,.99-.17,1.94,.51,2.1,1.5l1.64,9.87c.17,1-.51,1.94-1.5,2.1-.1,.02-.2,.02-.3,.02Z"/><path class="b" d="M79.84,319.34c-.57,0-1.13-.27-1.49-.76l-6.05-8.45c-.59-.82-.4-1.96,.42-2.55,.82-.59,1.96-.4,2.55,.42l6.05,8.45c.59,.82,.4,1.96-.42,2.55-.32,.23-.69,.34-1.06,.34Z"/><path class="b" d="M491.4,460.21c-.89,0-1.67-.65-1.8-1.55l-1.27-8.28c-.15-1,.53-1.93,1.53-2.08,.99-.15,1.93,.53,2.08,1.53l1.27,8.28c.15,1-.53,1.93-1.53,2.08-.09,.01-.19,.02-.28,.02Z"/><path class="b" d="M222.68,105.21c-.73,0-1.41-.44-1.7-1.15-.37-.94,.08-2,1.02-2.38l24.3-9.67c.94-.37,2,.08,2.38,1.02,.37,.94-.08,2-1.02,2.38l-24.3,9.67c-.22,.09-.45,.13-.68,.13Z"/><path class="b" d="M303.09,436.05c-.25,0-.5-.05-.74-.16l-13.13-5.8c-.92-.41-1.34-1.49-.93-2.41,.41-.92,1.49-1.34,2.41-.93l13.13,5.8c.92,.41,1.34,1.49,.94,2.41-.3,.68-.97,1.09-1.67,1.09Z"/><path class="b" d="M449.95,397.68c-.28,0-.56-.06-.83-.2-.9-.46-1.26-1.56-.8-2.46l12.41-24.45c.46-.9,1.56-1.26,2.46-.8,.9,.46,1.26,1.56,.8,2.46l-12.41,24.45c-.32,.64-.97,1-1.63,1Z"/><path class="b" d="M167.82,487.57c-.96,0-1.77-.75-1.82-1.72-.06-1.01,.71-1.87,1.72-1.93l22.01-1.31c1.01-.07,1.88,.71,1.93,1.72,.06,1.01-.71,1.87-1.72,1.93l-22.01,1.31s-.07,0-.11,0Z"/><path class="b" d="M132.29,86.64c-.78,0-1.51-.51-1.75-1.3-.29-.97,.25-1.99,1.22-2.28l20.86-6.31c.97-.29,1.99,.25,2.28,1.22,.29,.97-.25,1.99-1.22,2.28l-20.86,6.31c-.18,.05-.35,.08-.53,.08Z"/><path class="b" d="M10.39,39.93c-.87,0-1.64-.62-1.8-1.51L3.62,10.45c-.18-.99,.49-1.94,1.48-2.12,1-.18,1.94,.49,2.12,1.48l4.97,27.97c.18,.99-.49,1.94-1.48,2.12-.11,.02-.22,.03-.32,.03Z"/><path class="b" d="M192.76,311.75c-.88,0-1.66-.64-1.8-1.54l-3.99-24.89c-.16-1,.52-1.94,1.52-2.09,.99-.16,1.94,.52,2.09,1.52l3.99,24.89c.16,1-.52,1.94-1.52,2.1-.1,.02-.2,.02-.29,.02Z"/><path class="b" d="M351.49,234.32c-.19,0-.38-.03-.57-.09l-6.92-2.26c-.96-.31-1.48-1.35-1.17-2.31,.31-.96,1.34-1.49,2.31-1.17l6.92,2.26c.96,.31,1.48,1.35,1.17,2.31-.25,.77-.97,1.26-1.74,1.26Z"/><path class="b" d="M146.64,124.92c-.68,0-1.33-.38-1.65-1.03-.44-.91-.06-2,.85-2.44l8.38-4.06c.91-.44,2-.06,2.44,.85,.44,.91,.06,2-.85,2.44l-8.38,4.06c-.26,.12-.53,.18-.8,.18Z"/><path class="b" d="M178.82,54.04c-.43,0-.86-.15-1.21-.45l-3.6-3.16c-.76-.67-.83-1.82-.17-2.58,.67-.76,1.82-.83,2.58-.17l3.6,3.16c.76,.67,.83,1.82,.17,2.58-.36,.41-.87,.62-1.38,.62Z"/><path class="b" d="M176.88,369.59c-.11,0-.22,0-.33-.03l-9.44-1.73c-.99-.18-1.65-1.14-1.47-2.13,.18-.99,1.13-1.65,2.13-1.47l9.44,1.73c.99,.18,1.65,1.14,1.47,2.13-.16,.88-.93,1.5-1.8,1.5Z"/><path class="b" d="M382.98,482.63c-.96,0-1.77-.75-1.82-1.72l-1.04-17.42c-.06-1.01,.71-1.87,1.72-1.93,1.01-.08,1.87,.71,1.93,1.72l1.04,17.42c.06,1.01-.71,1.87-1.72,1.93-.04,0-.07,0-.11,0Z"/><path class="b" d="M16.25,439.59c-.77,0-1.48-.48-1.73-1.25l-7.59-22.67c-.32-.96,.2-1.99,1.15-2.31,.95-.32,1.99,.2,2.31,1.15l7.59,22.67c.32,.96-.2,1.99-1.15,2.31-.19,.06-.39,.1-.58,.1Z"/><path class="b" d="M56.64,356.22c-.45,0-.91-.17-1.26-.5l-20.32-19.3c-.73-.7-.76-1.85-.07-2.59,.7-.73,1.85-.76,2.59-.07l20.32,19.3c.73,.7,.76,1.85,.07,2.59-.36,.38-.84,.57-1.33,.57Z"/><path class="b" d="M280.87,9.15c-.62,0-1.23-.32-1.57-.89-.52-.87-.23-1.99,.64-2.51l6.45-3.83c.87-.52,1.99-.23,2.51,.64,.52,.87,.23,1.99-.64,2.51l-6.45,3.83c-.29,.17-.61,.26-.93,.26Z"/><path class="b" d="M46.88,56.16c-.87,0-1.64-.62-1.8-1.51-.18-.99,.49-1.94,1.48-2.12l14.27-2.55c1.01-.18,1.94,.48,2.12,1.48,.18,.99-.48,1.94-1.48,2.12l-14.27,2.55c-.11,.02-.22,.03-.32,.03Z"/><path class="b" d="M304.09,485.53c-.9,0-1.69-.67-1.81-1.58l-3.16-23.22c-.14-1,.56-1.92,1.57-2.06,1.01-.14,1.92,.56,2.06,1.57l3.16,23.22c.14,1-.56,1.92-1.57,2.06-.08,.01-.17,.02-.25,.02Z"/><path class="b" d="M40.35,14.41c-.63,0-1.24-.32-1.58-.9l-4.2-7.15c-.51-.87-.22-1.99,.65-2.5,.87-.51,1.99-.22,2.5,.65l4.2,7.15c.51,.87,.22,1.99-.65,2.5-.29,.17-.61,.25-.92,.25Z"/><path class="b" d="M60.05,463.53c-.85,0-1.62-.6-1.79-1.47l-4.31-21.3c-.2-.99,.44-1.95,1.43-2.15,1-.2,1.95,.44,2.15,1.43l4.31,21.3c.2,.99-.44,1.95-1.43,2.15-.12,.02-.24,.04-.36,.04Z"/><path class="b" d="M186.07,411.73c-.27,0-.55-.06-.81-.19-.9-.45-1.27-1.55-.82-2.45l3.97-7.96c.45-.9,1.55-1.27,2.45-.82,.9,.45,1.27,1.55,.82,2.45l-3.97,7.96c-.32,.64-.97,1.01-1.64,1.01Z"/><path class="b" d="M275.16,168.9c-.51,0-1.01-.21-1.37-.62l-7.56-8.59c-.67-.76-.59-1.91,.17-2.58,.76-.67,1.91-.59,2.58,.17l7.56,8.59c.67,.76,.59,1.91-.17,2.58-.35,.31-.78,.46-1.21,.46Z"/><path class="b" d="M268.49,129.55c-.62,0-1.22-.31-1.56-.88l-3.15-5.15c-.53-.86-.26-1.99,.61-2.51,.86-.53,1.99-.26,2.51,.61l3.15,5.15c.53,.86,.26,1.99-.61,2.51-.3,.18-.63,.27-.95,.27Z"/><path class="b" d="M415.32,58.7c-.08,0-.16,0-.24-.02l-15.08-2c-1-.13-1.71-1.05-1.57-2.05,.13-1,1.06-1.71,2.05-1.57l15.08,2c1,.13,1.71,1.05,1.57,2.05-.12,.92-.91,1.59-1.81,1.59Z"/><path class="b" d="M137.52,44.62c-.7,0-1.37-.4-1.67-1.09l-11.28-25.34c-.41-.92,0-2,.93-2.41,.92-.41,2,0,2.41,.93l11.28,25.34c.41,.92,0,2-.93,2.41-.24,.11-.49,.16-.74,.16Z"/><path class="b" d="M7.84,333.39c-.94,0-1.74-.72-1.82-1.68l-1.12-13.95c-.08-1.01,.67-1.89,1.68-1.97,1.01-.1,1.89,.67,1.97,1.68l1.12,13.95c.08,1.01-.67,1.89-1.68,1.97-.05,0-.1,0-.15,0Z"/><path class="b" d="M142.79,171.03c-.66,0-1.3-.36-1.62-.98l-7.56-14.47c-.47-.89-.12-2,.77-2.47,.89-.47,2-.12,2.47,.77l7.56,14.47c.47,.89,.12,2-.77,2.47-.27,.14-.56,.21-.84,.21Z"/><path class="b" d="M320.63,73.45c-.58,0-1.14-.27-1.5-.78-.58-.83-.38-1.97,.45-2.55l19.67-13.78c.83-.58,1.97-.38,2.55,.45,.58,.83,.38,1.97-.45,2.55l-19.67,13.78c-.32,.22-.69,.33-1.05,.33Z"/><path class="b" d="M62.18,405.28c-.34,0-.69-.1-.99-.29l-18.73-12.16c-.85-.55-1.09-1.68-.54-2.53,.55-.85,1.68-1.09,2.53-.54l18.73,12.16c.85,.55,1.09,1.68,.54,2.53-.35,.54-.94,.83-1.54,.83Z"/><path class="b" d="M24.44,484.43c-.09,0-.19,0-.29-.02-1-.16-1.68-1.09-1.52-2.09l3.3-21.03c.16-1,1.1-1.67,2.09-1.52,1,.16,1.68,1.09,1.52,2.09l-3.3,21.03c-.14,.9-.92,1.54-1.8,1.54Z"/><path class="b" d="M155.48,285.59c-.8,0-1.54-.53-1.76-1.34l-1.42-5.12c-.27-.97,.3-1.98,1.27-2.25,.97-.27,1.98,.3,2.25,1.27l1.42,5.12c.27,.97-.3,1.98-1.27,2.25-.16,.05-.33,.07-.49,.07Z"/><path class="b" d="M97.98,185.82c-.43,0-.86-.15-1.2-.45-.76-.67-.84-1.82-.17-2.58l3.13-3.58c.66-.76,1.82-.84,2.58-.17,.76,.67,.84,1.82,.17,2.58l-3.13,3.58c-.36,.41-.87,.62-1.38,.62Z"/><path class="b" d="M184.34,96.87c-.31,0-.62-.08-.91-.24-.88-.5-1.18-1.62-.68-2.5l6.86-11.96c.5-.88,1.62-1.18,2.5-.68,.88,.5,1.18,1.62,.68,2.5l-6.86,11.96c-.34,.59-.95,.92-1.59,.92Z"/><path class="b" d="M262.42,335.94c-.61,0-1.2-.3-1.55-.85l-5.7-9.03c-.54-.85-.28-1.98,.57-2.52,.86-.54,1.99-.28,2.52,.57l5.7,9.03c.54,.85,.28,1.98-.57,2.52-.3,.19-.64,.28-.97,.28Z"/><path class="b" d="M456.8,28.23c-.86,0-1.62-.61-1.79-1.48-.19-.99,.45-1.95,1.44-2.15l23.38-4.57c.99-.2,1.95,.45,2.15,1.44,.19,.99-.45,1.95-1.44,2.15l-23.38,4.57c-.12,.02-.24,.03-.35,.03Z"/><path class="b" d="M131.9,209.43c-.12,0-.24-.01-.36-.03l-6.22-1.23c-.99-.2-1.64-1.16-1.44-2.15,.2-.99,1.16-1.64,2.15-1.44l6.22,1.23c.99,.2,1.63,1.16,1.44,2.15-.17,.87-.94,1.47-1.79,1.47Z"/><path class="b" d="M112.09,120.6c-.62,0-1.23-.32-1.57-.89l-6.83-11.42c-.52-.87-.24-1.99,.63-2.51,.87-.52,1.99-.24,2.51,.63l6.83,11.42c.52,.87,.24,1.99-.63,2.51-.29,.18-.62,.26-.94,.26Z"/><path class="b" d="M13.93,78.4c-.15,0-.31-.02-.46-.06l-7.68-1.99c-.98-.25-1.57-1.25-1.31-2.23s1.25-1.56,2.23-1.31l7.68,1.99c.98,.25,1.57,1.25,1.31,2.23-.21,.82-.96,1.37-1.77,1.37Z"/><path class="b" d="M481.6,304.79c-.07,0-.14,0-.21-.01l-5.64-.65c-1-.12-1.72-1.02-1.61-2.03,.12-1,1.03-1.73,2.03-1.61l5.64,.65c1,.12,1.72,1.02,1.61,2.03-.11,.93-.9,1.62-1.81,1.62Z"/><path class="b" d="M477.92,261c-.15,0-.3-.02-.45-.06l-8.67-2.19c-.98-.25-1.57-1.24-1.33-2.22,.25-.98,1.24-1.57,2.22-1.33l8.67,2.19c.98,.25,1.57,1.24,1.33,2.22-.21,.83-.95,1.38-1.77,1.38Z"/><path class="b" d="M294.4,386.76c-.92,0-1.72-.7-1.82-1.64l-1.78-16.93c-.11-1,.62-1.9,1.63-2.01,1-.1,1.9,.62,2.01,1.63l1.78,16.93c.11,1-.62,1.9-1.63,2.01-.07,0-.13,0-.19,0Z"/><path class="b" d="M396,165.1c-.82,0-1.56-.55-1.77-1.39l-6.41-25.66c-.24-.98,.35-1.97,1.33-2.22,.97-.24,1.97,.35,2.22,1.33l6.41,25.66c.24,.98-.35,1.97-1.33,2.22-.15,.04-.3,.05-.44,.05Z"/><path class="b" d="M345.94,485.31h-.04l-7.84-.16c-1.01-.02-1.81-.86-1.79-1.87,.02-1.01,.85-1.77,1.87-1.79l7.84,.16c1.01,.02,1.81,.86,1.79,1.87-.02,1-.83,1.79-1.83,1.79Z"/></svg>