<?xml version="1.0" encoding="utf-8"?>
<!-- Generator: Adobe Illustrator 26.1.0, SVG Export Plug-In . SVG Version: 6.00 Build 0)  -->
<svg version="1.1" id="Layer_1" xmlns="http://www.w3.org/2000/svg" xmlns:xlink="http://www.w3.org/1999/xlink" x="0px" y="0px"
	 viewBox="0 0 760.6 493.9" style="enable-background:new 0 0 760.6 493.9;" xml:space="preserve">
<style type="text/css">
	.st0{fill:#E3EBF1;}
	.st1{fill:#FFB8B8;}
	.st2{fill:#1D2F38;}
	.st3{fill:#AABCC5;}
	.st4{fill:#C4C4C4;}
	.st5{fill:#FFFFFF;}
	.st6{fill:#17A550;}
</style>
<path class="st0" d="M760.6,231.9c0,40.8-31.4,74.6-72,77.8c-0.7,0-1.3,0.1-2,0.1v-74c0-1.5-0.7-2.9-1.8-3.9
	c-0.1-0.1-0.1-0.1-0.2-0.2c-0.1-0.1-0.1-0.1-0.2-0.2c-1.4-0.9-3.2-1.1-4.8-0.4l-0.8-1.8c0.9-0.4,1.9-0.6,2.9-0.6l-57-49.1
	c0.4-0.5,0.9-1,1.4-1.5c29.7-31.3,79-32.6,110.3-2.9C751.8,190,760.6,210.5,760.6,231.9L760.6,231.9z"/>
<path class="st1" d="M19.8,285.1c-1.1-5.5,2.5-10.8,8-11.8c0.6-0.1,1.2-0.2,1.8-0.2l45-53.5l11.2,14.4l-45.8,49.8
	c-0.3,5.6-5,9.9-10.6,9.6C24.6,293.1,20.6,289.7,19.8,285.1L19.8,285.1z"/>
<path class="st1" d="M233.3,219.2c-0.3,0.5-0.6,0.9-0.8,1.4l-49.1,7l-7.5-9.5l-15.8,9.4l14.8,23.1l59.9-17.7
	c4.3,3.9,10.9,3.6,14.8-0.7s3.6-10.9-0.7-14.8s-10.9-3.6-14.8,0.7C233.8,218.5,233.5,218.8,233.3,219.2z"/>
<polygon class="st1" points="149.4,398 158.1,406.7 195.6,377.3 182.8,364.5 "/>
<path class="st2" d="M166.8,431.4l-27.3-27.2l0,0l10.5-10.5l0,0l16.8,16.7C172.6,416.2,172.6,425.6,166.8,431.4L166.8,431.4
	L166.8,431.4L166.8,431.4z"/>
<polygon class="st1" points="103.2,481 115.5,481 121.3,433.7 103.2,433.7 "/>
<path class="st2" d="M139.1,492.4l-38.5,0l0,0l0-14.9l0,0l23.6,0C132.5,477.5,139.1,484.1,139.1,492.4L139.1,492.4L139.1,492.4
	L139.1,492.4z"/>
<path class="st2" d="M100.6,444.5l-14-103c-2.2-15.6-1.5-31.4,2-46.7c2.9-12.3,6.7-20.8,11.5-25.3c0.8-0.7,1.7-1.1,2.7-1.3l46.1-4.8
	c1.8-0.2,3.6,0.7,4.5,2.3l1.5,2.5c0.2,0.3,0.3,0.6,0.4,1l9.7,30.2c0.3,0.9,0.9,1.7,1.8,2.1c15.3,7.8,65.2,34.3,62.4,45.7
	c-2.7,10.7-27.8,28.1-35.4,33.2c-1.6,1.1-3.7,1-5.2,0l-12.7-8.7c-2.1-1.5-2.7-4.4-1.2-6.5c0.3-0.4,0.7-0.8,1.1-1.1l8.7-6.4
	c1.6-1.2,2-3.5,0.8-5.1c-0.4-0.6-1-1-1.7-1.3l-46.9-16.5c-1.9-0.7-4,0.3-4.7,2.2c-0.1,0.3-0.2,0.6-0.2,0.9l-8.6,105.7
	c-0.2,2.3-2.1,4.2-4.4,4.3l-13.4,0.7c-0.1,0-0.2,0-0.2,0C102.9,448.5,100.9,446.8,100.6,444.5z"/>
<circle class="st1" cx="121.7" cy="153.5" r="24.6"/>
<path class="st3" d="M98.8,265.2l-18.1-66L81,199c0.4-0.3,39.4-26,85-5.3l0.8,0.5l-10.7,68.5c-0.5,3.2-3.2,5.6-6.4,5.8l-44.1,1.7
	c-0.1,0-0.2,0-0.3,0C102.2,270.2,99.6,268.1,98.8,265.2z"/>
<path class="st3" d="M80,242.2l-15.1-17.3c-1.5-1.7-1.5-4.3-0.1-6l15.7-19.4l12.1,3.3l6.4,22.4l-11.7,16.7c-0.8,1.2-2.2,1.9-3.6,2
	c-0.1,0-0.2,0-0.3,0C82.2,243.8,80.9,243.2,80,242.2z"/>
<path class="st3" d="M163.3,238.6c-1.4-0.1-2.8-0.8-3.6-2L148,219.9l5.6-23.6l11.1-3l2.1,1l15.4,19.4c1.4,1.8,1.4,4.3-0.1,6L167,237
	c-0.9,1-2.2,1.6-3.5,1.6C163.4,238.6,163.3,238.6,163.3,238.6z"/>
<path class="st2" d="M686.6,230.8c0,0.2-0.1,0.5-0.2,0.7c-0.4,0.4-1,0.5-1.4,0.1l-3.4-2.9l-57-49.1L464.8,42c-1.9-1.6-4.7-1.6-6.5,0
	L243.2,228.9l-1.9,1.7c-0.1,0.1-0.2,0.1-0.2,0.2c-0.2,0.1-0.3,0.1-0.5,0.1c-0.2,0-0.5-0.1-0.6-0.3c-0.4-0.4-0.3-1,0.1-1.4
	c0,0,0,0,0,0l0.3-0.2L457,40.5c2.6-2.3,6.5-2.3,9.2,0L626,178.2l60.2,51.9C686.4,230.3,686.5,230.6,686.6,230.8z"/>
<path class="st4" d="M565.1,260.4l-2.6-7.2l-9.1-25l-19.5-53.8l-21.8-60.2L472.7,5.6c-1.6-4.4-6.5-6.7-10.9-5.1L234.3,83
	c-4.4,1.6-6.7,6.5-5.1,10.9L285,247.8l0.9,2.6l58.6,26.5l16.5,7.5l2.7,1.2l69.7,31.6l2.7-1l45.7-16.6l69-25l9.3-3.4
	C564.4,269.7,566.7,264.8,565.1,260.4z"/>
<path class="st5" d="M469.7,132.2c-2.4-6.5-9.5-9.8-16-7.5l-90,32.6l-43.5,15.8c-6.5,2.3-9.8,9.5-7.5,16c2.3,6.5,9.5,9.8,16,7.5
	c0,0,0,0,0,0l34.9-12.7l98.6-35.7C468.7,145.9,472,138.7,469.7,132.2z"/>
<path class="st5" d="M485.5,175.9c-2.4-6.5-9.5-9.8-16-7.5l-15.2,5.5l-90.6,32.9l-27.6,10c-6.5,2.4-9.8,9.5-7.5,16s9.5,9.8,16,7.5
	l0,0l19.1-6.9L478,191.9c0.3-0.1,0.5-0.2,0.8-0.3C484.8,189,487.8,182.1,485.5,175.9z"/>
<path class="st5" d="M501.6,220.1c-2.4-6.5-9.5-9.8-16-7.5l-42.8,15.5l-33.1,12l-46,16.7L352,261c-5.5,2-8.9,7.6-8.1,13.4
	c0.1,0.8,0.3,1.7,0.6,2.5l16.5,7.5l2.7-1h0l83.5-30.3l46.9-17C500.6,233.8,503.9,226.6,501.6,220.1L501.6,220.1z"/>
<path class="st5" d="M407.8,89.2c-2.4-6.5-9.5-9.8-16-7.5l-51.7,18.7c-6.5,2.4-9.8,9.5-7.5,16s9.5,9.8,16,7.5l16.4-5.9l10.8-3.9
	l24.5-8.9C406.8,102.9,410.2,95.7,407.8,89.2z"/>
<path class="st6" d="M614.1,114.1h-242c-2.9,0-5.6,1.5-7.2,3.9c-0.9,1.4-1.3,2.9-1.3,4.6v163l69.7,31.6l9.8,4.5l15.5,7
	c1.8,0.8,3.9,0.8,5.8,0l15.5-7l48.5-22l45.2-20.5l48.9-22.2V122.6C622.6,117.9,618.8,114.1,614.1,114.1z"/>
<path class="st5" d="M564.1,228.1h-142c-6.7,0-12.2,5.3-12.5,12c0,0.2,0,0.3,0,0.5c0,6.9,5.6,12.5,12.5,12.5h142
	c6.9,0,12.5-5.6,12.5-12.5S571,228.1,564.1,228.1z"/>
<path class="st5" d="M572.2,277.6c-2.3-1.9-5.1-3-8.1-3h-142c-6.9,0-12.5,5.6-12.5,12.5s5.6,12.5,12.5,12.5h106.4l45.2-20.5
	C573.3,278.6,572.8,278.1,572.2,277.6z"/>
<path class="st5" d="M443.2,321.6l15.5,7c1.8,0.8,3.9,0.8,5.8,0l15.5-7H443.2z"/>
<path class="st5" d="M532.4,174.8c-1.8-4.9-6.5-8.2-11.7-8.2h-55c-4.9,0-9.4,2.9-11.4,7.3c-0.7,1.6-1.1,3.4-1.1,5.2
	c0,6.9,5.6,12.5,12.5,12.5h55c6.9,0,12.5-5.6,12.5-12.5C533.1,177.7,532.9,176.2,532.4,174.8z"/>
<path class="st2" d="M523.6,299.6l-48.5,22l-11.5,5.2c-1.3,0.6-2.8,0.6-4.1,0l-11.5-5.2h-4.9l15.5,7c1.8,0.8,3.9,0.8,5.8,0l15.5-7
	l48.5-22H523.6z M523.6,299.6l-48.5,22l-11.5,5.2c-1.3,0.6-2.8,0.6-4.1,0l-11.5-5.2h-4.9l15.5,7c1.8,0.8,3.9,0.8,5.8,0l15.5-7
	l48.5-22H523.6z M523.6,299.6l-48.5,22l-11.5,5.2c-1.3,0.6-2.8,0.6-4.1,0l-11.5-5.2h-4.9l15.5,7c1.8,0.8,3.9,0.8,5.8,0l15.5-7
	l48.5-22H523.6z M686.6,230.8c-0.4-0.4-0.8-0.7-1.2-1c-2-1.3-4.5-1.5-6.7-0.5l-106.4,48.2l-48.6,22l-48.5,22l-11.5,5.2
	c-1.3,0.6-2.8,0.6-4.1,0l-11.5-5.2l-12-5.4l-72.4-32.8l0,0l-19.7-9L285,247.8l-40.6-18.4c-0.4-0.2-0.8-0.3-1.3-0.4
	c-1-0.2-2-0.3-3-0.1c-3.3,0.7-5.6,3.5-5.6,6.9v251.1c0,3.9,3.1,7,7,7h440c3.9,0,7-3.1,7-7V235.7
	C688.6,233.9,687.8,232.1,686.6,230.8L686.6,230.8z M686.6,486.9c0,2.8-2.2,5-5,5h-440c-2.8,0-5-2.2-5-5V235.7
	c0-1.7,0.9-3.3,2.3-4.2c0.5-0.3,1-0.5,1.6-0.7c0.2,0,0.3-0.1,0.5-0.1c0.2,0,0.4,0,0.6,0c0.7,0,1.4,0.2,2.1,0.5l42.3,19.2l58.6,26.5
	l16.5,7.5l2.7,1.2l69.7,31.6l9.8,4.5l15.5,7c1.8,0.8,3.9,0.8,5.8,0l15.5-7l48.5-22l45.2-20.5l105.8-47.9c1.5-0.7,3.3-0.6,4.8,0.4
	c0.1,0,0.2,0.1,0.2,0.2c0.1,0.1,0.2,0.1,0.2,0.2c1.2,0.9,1.8,2.4,1.8,3.9L686.6,486.9z M523.6,299.6l-48.5,22l-11.5,5.2
	c-1.3,0.6-2.8,0.6-4.1,0l-11.5-5.2h-4.9l15.5,7c1.8,0.8,3.9,0.8,5.8,0l15.5-7l48.5-22H523.6z M523.6,299.6l-48.5,22l-11.5,5.2
	c-1.3,0.6-2.8,0.6-4.1,0l-11.5-5.2h-4.9l15.5,7c1.8,0.8,3.9,0.8,5.8,0l15.5-7l48.5-22H523.6z M361,284.4l2.7,1.2v-2.2L361,284.4z
	 M523.6,299.6l-48.5,22l-11.5,5.2c-1.3,0.6-2.8,0.6-4.1,0l-11.5-5.2h-4.9l15.5,7c1.8,0.8,3.9,0.8,5.8,0l15.5-7l48.5-22H523.6z"/>
<path class="st2" d="M175.5,493.9h-113c-0.6,0-1-0.4-1-1s0.4-1,1-1h113c0.6,0,1,0.4,1,1S176.1,493.9,175.5,493.9z"/>
<path class="st2" d="M112.4,171.5c-5.3-2.7-7.4-9.1-4.7-14.4c1.2-2.4,3.2-4.2,5.7-5.1c7.4-2.9,15.7,3,23.5,1.3
	c7.7-1.7,12.2-10.9,10.4-18.6s-8.6-13.5-16-16.3c-9.8-3.7-20.8-2.7-29.7,2.7c-8.9,5.5-14.5,15.1-14.9,25.6
	c-0.2,10.5,5.2,20.4,14.2,25.8c2,1.1,4.3,2.1,6.5,1.5C109.1,173.5,110.8,172.6,112.4,171.5z"/>
<path class="st2" d="M104.4,120.5c-6.5-8.7-15.4-15.8-25.6-19.3s-22-3.2-31.6,1.7s-16.8,14.9-17.6,25.7c-1.2,18,14.2,33.3,15.7,51.3
	c1.7,19-12.4,35.7-31.4,37.4c-4.7,0.4-9.5-0.1-13.9-1.6c7.8,6.4,18,9.3,28,8c10-1.5,18.9-7.4,24-16.2c3.5-6,4.9-13,5.4-19.9
	c0.9-11-0.3-22-3.5-32.5c-1.7-5.7-4.1-11.6-3-17.5c1.3-6.3,6.2-11.2,12.4-12.5c5-0.9,10,0.6,14.7,2.3s9.5,3.8,14.5,3.9
	s10.5-2.2,12.5-6.8L104.4,120.5z"/>
</svg>
