<?xml version="1.0" encoding="utf-8"?>
<!-- Generator: Adobe Illustrator 26.1.0, SVG Export Plug-In . SVG Version: 6.00 Build 0)  -->
<svg version="1.1" id="f9eb83fe-2109-496c-8de2-d29751931755"
	 xmlns="http://www.w3.org/2000/svg" xmlns:xlink="http://www.w3.org/1999/xlink" x="0px" y="0px" viewBox="0 0 1166.2 805.1"
	 style="enable-background:new 0 0 1166.2 805.1;" xml:space="preserve">
<style type="text/css">
	.st0{opacity:0.1;fill:#17A550;enable-background:new    ;}
	.st1{fill:#17A550;}
	.st2{fill:#1D2F38;}
	.st3{fill:#536D7A;}
	.st4{fill:#FFFFFF;}
	.st5{opacity:0.8;fill:#FA5959;enable-background:new    ;}
	.st6{opacity:0.8;fill:#FED253;enable-background:new    ;}
	.st7{opacity:0.8;fill:#8CCF4D;enable-background:new    ;}
	.st8{opacity:5.000000e-02;enable-background:new    ;}
	.st9{fill:url(#SVGID_1_);}
	.st10{fill:#FBBEBE;}
	.st11{opacity:0.1;enable-background:new    ;}
	.st12{fill:#33313F;}
	.st13{opacity:0.1;}
</style>
<path class="st0" d="M659.6,109.6c-74.8,0.1-146.7-21.1-215.5-44.6S307,15.1,233.6,3.9C186.4-3.3,132.8-2.6,95.9,23.5
	C60.4,48.5,50.1,90,45.2,128.4c-3.7,28.9-5.5,59.1,8.5,85.5c9.7,18.3,26.3,33.4,38,50.9c40.8,60.7,16.3,138.3-23.4,200.5
	c-18.6,29.2-40.4,57.1-54.5,87.9S-6,619,8.3,649.4c14.2,30.2,46.3,52,80.8,67c70,30.4,151.5,36.9,230.8,39.5
	c175.6,5.6,351.5-5.8,526.9-17.2c64.9-4.2,130.1-8.4,193.7-20.6c35.3-6.8,71.7-16.8,96.7-38.7c31.8-27.9,38.3-73.4,15.2-106.1
	c-38.8-54.9-141-65.2-168.8-124.6c-15.3-32.7-2.1-70.2,17.4-101.7c41.8-67.6,113.6-128.2,114.8-203.8
	c0.8-51.9-36.6-102.6-92.4-125.2C964.9-5.6,885.1,0.5,844.1,44.5C801.9,89.9,725.6,109.5,659.6,109.6z"/>
<path class="st1" d="M992.5,645.4c0,0-12.3-8.1-24.5-2.3c0,0,3.8,7.2,19.2,6.5L992.5,645.4z"/>
<path class="st1" d="M994.1,645.8c0,0,3.7,14.2-5.6,23.9c0,0-5.6-5.9,0-20.2L994.1,645.8z"/>
<path class="st1" d="M1009.4,632.1c0,0-0.9-12.1-28.3-8.1c0,0-0.1,7.8,9.5,11.5S1004.6,636.1,1009.4,632.1z"/>
<path class="st1" d="M1011.1,632c0,0,11.6,3.7,1.2,29.4c0,0-7.6-1.7-9-11.9S1006,635.8,1011.1,632z"/>
<path class="st1" d="M1026.5,614.9c0,0,1.6-19.9-26.4-17.9c0,0-2,18,21.4,22.7L1026.5,614.9z"/>
<path class="st1" d="M1045,592.4c0,0-3.8-22.6-31.8-15.9c0,0-0.1,19.5,27.2,21.2L1045,592.4z"/>
<path class="st1" d="M1058.5,569.1c0,0-6.4-22-34.1-15.4c0,0,6.6,19.8,32.3,19.5L1058.5,569.1z"/>
<path class="st1" d="M1071.3,546.4c0,0-6.3-22.8-33-16c0,0,8.9,21.7,31.2,19.9L1071.3,546.4z"/>
<path class="st1" d="M1079.6,524.8c0,0-4.8-27.9-29.7-21.7c0,0,7.2,25.4,27.9,25.8L1079.6,524.8z"/>
<path class="st1" d="M1087.3,498.7c0,0-5.8-28.1-31-20c0,0,9.9,26.6,29.2,23.8L1087.3,498.7z"/>
<path class="st1" d="M1092.1,474.5c0,0-9.2-28.1-28.7-27.4c0,0,9.4,29.7,27.1,33L1092.1,474.5z"/>
<path class="st1" d="M1095.2,450.8c0,0-10-33.9-25.9-31.3c0,0,6.9,25.9,25.3,36.5L1095.2,450.8z"/>
<path class="st1" d="M1096.9,422.5c0,0-9.4-28.2-25-29.4c0,0,6.4,27.8,24.7,36.7L1096.9,422.5z"/>
<path class="st1" d="M1098.8,396.2c0,0-11.7-28.3-22-28.9c0,0,5.1,27.8,21,33.5L1098.8,396.2z"/>
<path class="st1" d="M1100.1,371.7c0,0-7.2-30.7-17.5-33.2c0,0,1.4,25.1,16.5,35.5L1100.1,371.7z"/>
<path class="st1" d="M1104,339.5c0,0-7.6-24.5-15.9-28.2c0,0,1.7,28.9,14,34.2L1104,339.5z"/>
<path class="st1" d="M1107.2,318.5l1.5-43.1c0,0-15.7,32.5-2.7,50.7L1107.2,318.5z"/>
<path class="st1" d="M1119.3,275.6c0,0,11.3-31.5,14-33.3c0,0-22.1,20.4-19.9,46.7L1119.3,275.6z"/>
<path class="st1" d="M1027.3,614.7c0,0,19.8-2.6,19.2,25.4c0,0-17.9,2.9-23.8-20.2L1027.3,614.7z"/>
<path class="st1" d="M1045.9,591.6c0,0,22.9-0.1,21,28.6c0,0-19.2,3.4-25.6-23.2L1045.9,591.6z"/>
<path class="st1" d="M1058.7,570.9c0,0,20.8-9.8,34.1,15.4c0,0-19.2,8.1-35.9-11.3L1058.7,570.9z"/>
<path class="st1" d="M1071.8,546.6c0,0,21.3-10.4,33.8,14.2c0,0-22.2,7.6-35.6-10.3L1071.8,546.6z"/>
<path class="st1" d="M1079.3,525.4c0,0,20.5-19.6,36.8,0.2c0,0-20.9,16.1-37.8,4.1L1079.3,525.4z"/>
<path class="st1" d="M1086.2,498.1c0,0,20.6-20,36.8,0.9c0,0-23.1,16.4-37.6,3.3L1086.2,498.1z"/>
<path class="st1" d="M1090,473.7c0,0,15.9-25,34.6-19.4c0,0-16.5,26.5-34.4,25.3L1090,473.7z"/>
<path class="st1" d="M1094.7,450.6c0,0,16-31.5,31.1-26c0,0-11.5,24.2-31.6,31.3L1094.7,450.6z"/>
<path class="st1" d="M1095.8,420.9c0,0,16.4-24.8,31.9-21.8c0,0-13.4,25.1-33.5,28.9L1095.8,420.9z"/>
<path class="st1" d="M1097.1,395.6c0,0,12.8-27.8,23.1-28c0,0-6.1,27.6-22.2,32.7L1097.1,395.6z"/>
<path class="st1" d="M1099.6,371.1c0,0,14.2-28.2,24.8-28.2c0,0-7.2,24.1-24.3,30.7L1099.6,371.1z"/>
<path class="st1" d="M1101.7,341.3c0,0,10.6-23.3,19.4-25.9c0,0-5.3,28.4-18.2,32.1L1101.7,341.3z"/>
<path class="st1" d="M1108.5,317.7l23.7-36.1c0,0-6.1,35.6-27.2,43L1108.5,317.7z"/>
<path class="st1" d="M1124.7,278.5c0,0,27.5-19,28.5-22.1c0,0-14,26.6-40,31.3L1124.7,278.5z"/>
<path class="st1" d="M1126.4,270c0,0,31.6-30.4,39.7-30.4c0,0-26.1,1.2-40.4,28.7L1126.4,270z"/>
<path class="st2" d="M1102,345.8l1.2,0.1c5.9-46.5,14.6-74,24.4-77.4l-0.4-1.1C1116.8,271.1,1108.1,298.2,1102,345.8z"/>
<path class="st2" d="M1093.3,457l1.7,0.1c0.4-4.3,0.7-8.8,0.8-13.2c1.7-38.5,4.2-73.8,7.6-100.3l-1-1.2c-3.4,26.5-6.7,63-8.3,101.5
	C1093.9,448.2,1093.7,452.7,1093.3,457z"/>
<path class="st2" d="M960.1,667.5c0.3-0.1,30.9-13.8,62.7-46.4c18.6-19.1,34.1-41,45.8-65c14.7-29.9,23.7-66.7,26.7-102.4l-1.8,0.9
	c-6.8,80.2-43.3,135-72.3,164.8c-31.5,32.3-61.8,45.9-62.1,46L960.1,667.5z"/>
<path class="st3" d="M1039.4,85.2H78.5c-4.7,0-8.6,3.8-8.6,8.6v24.9h978V93.8C1048,89.1,1044.1,85.2,1039.4,85.2z"/>
<path class="st4" d="M70,118.7V680c0,9.5,7.7,17.3,17.3,17.3c0,0,0,0,0,0h943.5c9.5,0,17.3-7.7,17.3-17.3l0,0V118.7H70z"/>
<circle class="st5" cx="85.4" cy="101.7" r="4"/>
<circle class="st6" cx="96.4" cy="101.7" r="4"/>
<circle class="st7" cx="107.4" cy="101.7" r="4"/>
<rect x="160.9" y="212.3" class="st8" width="786" height="345.6"/>
<rect x="166.9" y="214.9" class="st3" width="774" height="338"/>
<path class="st1" d="M377.9,301.9c-42.5,0-77,34.5-77,77s34.5,77,77,77s77-34.5,77-77S420.4,301.9,377.9,301.9L377.9,301.9z
	 M391.7,380.8v36.5h-27.2v-36.5c-9.9-7.5-11.9-21.7-4.4-31.6s21.7-11.9,31.6-4.4s11.9,21.7,4.4,31.6
	C394.8,378.1,393.3,379.5,391.7,380.8z"/>
<path class="st8" d="M377.9,301.9c-42.5,0-77,34.5-77,77s34.5,77,77,77s77-34.5,77-77S420.4,301.9,377.9,301.9L377.9,301.9z
	 M391.7,380.8v36.5h-27.2v-36.5c-9.9-7.5-11.9-21.7-4.4-31.6s21.7-11.9,31.6-4.4s11.9,21.7,4.4,31.6
	C394.8,378.1,393.3,379.5,391.7,380.8z"/>
<path class="st1" d="M377.9,279.9c-54.7,0-99,44.3-99,99s44.3,99,99,99s99-44.3,99-99l0,0C476.9,324.2,432.5,279.9,377.9,279.9z
	 M395.6,381.3v46.9h-35v-46.9c-12.8-9.7-15.3-27.9-5.6-40.6s27.9-15.3,40.6-5.6s15.3,27.9,5.6,40.6
	C399.6,377.8,397.7,379.7,395.6,381.3z"/>
<rect x="517.9" y="365.9" class="st4" width="320" height="34"/>
<rect x="768.9" y="427.9" class="st1" width="69" height="34"/>
<path class="st1" d="M549.4,382.4h-5.8l5.2-5.1c0.2-0.2,0.2-0.5,0-0.7c-0.2-0.2-0.5-0.2-0.7,0c0,0,0,0,0,0l-5.2,5.1v-5.8
	c0-0.3-0.2-0.5-0.5-0.5c-0.3,0-0.5,0.2-0.5,0.5v5.8l-5.1-5.2c-0.2-0.2-0.5-0.2-0.7,0c0,0,0,0,0,0c-0.2,0.2-0.2,0.5,0,0.7l5.2,5.1
	h-5.8c-0.3,0-0.5,0.2-0.5,0.5c0,0.3,0.2,0.5,0.5,0.5h5.8l-5.2,5.1c-0.2,0.2-0.2,0.5,0,0.7c0.2,0.2,0.5,0.2,0.7,0l5.1-5.1v5.8
	c0,0.3,0.2,0.5,0.5,0.5s0.5-0.2,0.5-0.5v-5.8l5.2,5.1c0.2,0.2,0.5,0.2,0.7,0c0.2-0.2,0.2-0.5,0-0.7l-5.2-5.1h5.8
	c0.3,0,0.5-0.2,0.5-0.5C549.9,382.6,549.6,382.4,549.4,382.4z"/>
<path class="st1" d="M570.4,382.4h-5.8l5.2-5.1c0.2-0.2,0.2-0.5,0-0.7c-0.2-0.2-0.5-0.2-0.7,0c0,0,0,0,0,0l-5.2,5.1v-5.8
	c0-0.3-0.2-0.5-0.5-0.5c-0.3,0-0.5,0.2-0.5,0.5v5.8l-5.1-5.2c-0.2-0.2-0.5-0.2-0.7,0c0,0,0,0,0,0c-0.2,0.2-0.2,0.5,0,0.7l5.2,5.1
	h-5.8c-0.3,0-0.5,0.2-0.5,0.5c0,0.3,0.2,0.5,0.5,0.5h5.8l-5.2,5.1c-0.2,0.2-0.2,0.5,0,0.7c0.2,0.2,0.5,0.2,0.7,0l5.1-5.1v5.8
	c0,0.3,0.2,0.5,0.5,0.5s0.5-0.2,0.5-0.5v-5.8l5.2,5.1c0.2,0.2,0.5,0.2,0.7,0c0.2-0.2,0.2-0.5,0-0.7l-5.2-5.1h5.8
	c0.3,0,0.5-0.2,0.5-0.5C570.9,382.6,570.6,382.4,570.4,382.4z"/>
<path class="st1" d="M591.4,382.4h-5.8l5.2-5.1c0.2-0.2,0.2-0.5,0-0.7c-0.2-0.2-0.5-0.2-0.7,0c0,0,0,0,0,0l-5.2,5.1v-5.8
	c0-0.3-0.2-0.5-0.5-0.5c-0.3,0-0.5,0.2-0.5,0.5v5.8l-5.1-5.2c-0.2-0.2-0.5-0.2-0.7,0c0,0,0,0,0,0c-0.2,0.2-0.2,0.5,0,0.7l5.2,5.1
	h-5.8c-0.3,0-0.5,0.2-0.5,0.5c0,0.3,0.2,0.5,0.5,0.5h5.8l-5.2,5.1c-0.2,0.2-0.2,0.5,0,0.7c0.2,0.2,0.5,0.2,0.7,0l5.1-5.1v5.8
	c0,0.3,0.2,0.5,0.5,0.5s0.5-0.2,0.5-0.5v-5.8l5.2,5.1c0.2,0.2,0.5,0.2,0.7,0c0.2-0.2,0.2-0.5,0-0.7l-5.2-5.1h5.8
	c0.3,0,0.5-0.2,0.5-0.5C591.9,382.6,591.6,382.4,591.4,382.4z"/>
<path class="st1" d="M612.4,382.4h-5.8l5.2-5.1c0.2-0.2,0.2-0.5,0-0.7c-0.2-0.2-0.5-0.2-0.7,0c0,0,0,0,0,0l-5.2,5.1v-5.8
	c0-0.3-0.2-0.5-0.5-0.5c-0.3,0-0.5,0.2-0.5,0.5v5.8l-5.1-5.2c-0.2-0.2-0.5-0.2-0.7,0c0,0,0,0,0,0c-0.2,0.2-0.2,0.5,0,0.7l5.2,5.1
	h-5.8c-0.3,0-0.5,0.2-0.5,0.5c0,0.3,0.2,0.5,0.5,0.5h5.8l-5.2,5.1c-0.2,0.2-0.2,0.5,0,0.7c0.2,0.2,0.5,0.2,0.7,0l5.1-5.1v5.8
	c0,0.3,0.2,0.5,0.5,0.5s0.5-0.2,0.5-0.5v-5.8l5.2,5.1c0.2,0.2,0.5,0.2,0.7,0c0.2-0.2,0.2-0.5,0-0.7l-5.2-5.1h5.8
	c0.3,0,0.5-0.2,0.5-0.5C612.9,382.6,612.6,382.4,612.4,382.4z"/>
<path class="st1" d="M633.4,382.4h-5.8l5.2-5.1c0.2-0.2,0.2-0.5,0-0.7c-0.2-0.2-0.5-0.2-0.7,0c0,0,0,0,0,0l-5.2,5.1v-5.8
	c0-0.3-0.2-0.5-0.5-0.5c-0.3,0-0.5,0.2-0.5,0.5v5.8l-5.1-5.2c-0.2-0.2-0.5-0.2-0.7,0c0,0,0,0,0,0c-0.2,0.2-0.2,0.5,0,0.7l5.2,5.1
	h-5.8c-0.3,0-0.5,0.2-0.5,0.5c0,0.3,0.2,0.5,0.5,0.5h5.8l-5.2,5.1c-0.2,0.2-0.2,0.5,0,0.7c0.2,0.2,0.5,0.2,0.7,0l5.1-5.1v5.8
	c0,0.3,0.2,0.5,0.5,0.5s0.5-0.2,0.5-0.5v-5.8l5.2,5.1c0.2,0.2,0.5,0.2,0.7,0c0.2-0.2,0.2-0.5,0-0.7l-5.2-5.1h5.8
	c0.3,0,0.5-0.2,0.5-0.5C633.9,382.6,633.6,382.4,633.4,382.4z"/>
<path class="st1" d="M654.4,382.4h-5.8l5.2-5.1c0.2-0.2,0.2-0.5,0-0.7c-0.2-0.2-0.5-0.2-0.7,0c0,0,0,0,0,0l-5.2,5.1v-5.8
	c0-0.3-0.2-0.5-0.5-0.5c-0.3,0-0.5,0.2-0.5,0.5v5.8l-5.1-5.2c-0.2-0.2-0.5-0.2-0.7,0c0,0,0,0,0,0c-0.2,0.2-0.2,0.5,0,0.7l5.2,5.1
	h-5.8c-0.3,0-0.5,0.2-0.5,0.5c0,0.3,0.2,0.5,0.5,0.5h5.8l-5.2,5.1c-0.2,0.2-0.2,0.5,0,0.7c0.2,0.2,0.5,0.2,0.7,0l5.1-5.1v5.8
	c0,0.3,0.2,0.5,0.5,0.5s0.5-0.2,0.5-0.5v-5.8l5.2,5.1c0.2,0.2,0.5,0.2,0.7,0c0.2-0.2,0.2-0.5,0-0.7l-5.2-5.1h5.8
	c0.3,0,0.5-0.2,0.5-0.5C654.9,382.6,654.6,382.4,654.4,382.4z"/>
<path class="st1" d="M675.4,382.4h-5.8l5.2-5.1c0.2-0.2,0.2-0.5,0-0.7c-0.2-0.2-0.5-0.2-0.7,0c0,0,0,0,0,0l-5.2,5.1v-5.8
	c0-0.3-0.2-0.5-0.5-0.5c-0.3,0-0.5,0.2-0.5,0.5v5.8l-5.1-5.2c-0.2-0.2-0.5-0.2-0.7,0c0,0,0,0,0,0c-0.2,0.2-0.2,0.5,0,0.7l5.2,5.1
	h-5.8c-0.3,0-0.5,0.2-0.5,0.5c0,0.3,0.2,0.5,0.5,0.5h5.8l-5.2,5.1c-0.2,0.2-0.2,0.5,0,0.7c0.2,0.2,0.5,0.2,0.7,0l5.1-5.1v5.8
	c0,0.3,0.2,0.5,0.5,0.5s0.5-0.2,0.5-0.5v-5.8l5.2,5.1c0.2,0.2,0.5,0.2,0.7,0c0.2-0.2,0.2-0.5,0-0.7l-5.2-5.1h5.8
	c0.3,0,0.5-0.2,0.5-0.5C675.9,382.6,675.6,382.4,675.4,382.4z"/>
<path class="st1" d="M696.4,382.4h-5.8l5.2-5.1c0.2-0.2,0.2-0.5,0-0.7c-0.2-0.2-0.5-0.2-0.7,0c0,0,0,0,0,0l-5.2,5.1v-5.8
	c0-0.3-0.2-0.5-0.5-0.5c-0.3,0-0.5,0.2-0.5,0.5v5.8l-5.1-5.2c-0.2-0.2-0.5-0.2-0.7,0c0,0,0,0,0,0c-0.2,0.2-0.2,0.5,0,0.7l5.2,5.1
	h-5.8c-0.3,0-0.5,0.2-0.5,0.5c0,0.3,0.2,0.5,0.5,0.5h5.8l-5.2,5.1c-0.2,0.2-0.2,0.5,0,0.7c0.2,0.2,0.5,0.2,0.7,0l5.1-5.1v5.8
	c0,0.3,0.2,0.5,0.5,0.5s0.5-0.2,0.5-0.5v-5.8l5.2,5.1c0.2,0.2,0.5,0.2,0.7,0c0.2-0.2,0.2-0.5,0-0.7l-5.2-5.1h5.8
	c0.3,0,0.5-0.2,0.5-0.5C696.9,382.6,696.6,382.4,696.4,382.4z"/>
<path class="st1" d="M717.4,382.4h-5.8l5.2-5.1c0.2-0.2,0.2-0.5,0-0.7c-0.2-0.2-0.5-0.2-0.7,0c0,0,0,0,0,0l-5.2,5.1v-5.8
	c0-0.3-0.2-0.5-0.5-0.5c-0.3,0-0.5,0.2-0.5,0.5v5.8l-5.1-5.2c-0.2-0.2-0.5-0.2-0.7,0c0,0,0,0,0,0c-0.2,0.2-0.2,0.5,0,0.7l5.2,5.1
	h-5.8c-0.3,0-0.5,0.2-0.5,0.5c0,0.3,0.2,0.5,0.5,0.5h5.8l-5.2,5.1c-0.2,0.2-0.2,0.5,0,0.7c0.2,0.2,0.5,0.2,0.7,0l5.1-5.1v5.8
	c0,0.3,0.2,0.5,0.5,0.5s0.5-0.2,0.5-0.5v-5.8l5.2,5.1c0.2,0.2,0.5,0.2,0.7,0c0.2-0.2,0.2-0.5,0-0.7l-5.2-5.1h5.8
	c0.3,0,0.5-0.2,0.5-0.5C717.9,382.6,717.6,382.4,717.4,382.4z"/>
<path class="st1" d="M738.4,382.4h-5.8l5.2-5.1c0.2-0.2,0.2-0.5,0-0.7c-0.2-0.2-0.5-0.2-0.7,0c0,0,0,0,0,0l-5.2,5.1v-5.8
	c0-0.3-0.2-0.5-0.5-0.5c-0.3,0-0.5,0.2-0.5,0.5v5.8l-5.1-5.2c-0.2-0.2-0.5-0.2-0.7,0c0,0,0,0,0,0c-0.2,0.2-0.2,0.5,0,0.7l5.2,5.1
	h-5.8c-0.3,0-0.5,0.2-0.5,0.5c0,0.3,0.2,0.5,0.5,0.5h5.8l-5.2,5.1c-0.2,0.2-0.2,0.5,0,0.7c0.2,0.2,0.5,0.2,0.7,0l5.1-5.1v5.8
	c0,0.3,0.2,0.5,0.5,0.5s0.5-0.2,0.5-0.5v-5.8l5.2,5.1c0.2,0.2,0.5,0.2,0.7,0c0.2-0.2,0.2-0.5,0-0.7l-5.2-5.1h5.8
	c0.3,0,0.5-0.2,0.5-0.5C738.9,382.6,738.6,382.4,738.4,382.4z"/>
<path class="st1" d="M759.4,382.4h-5.8l5.2-5.1c0.2-0.2,0.2-0.5,0-0.7c-0.2-0.2-0.5-0.2-0.7,0c0,0,0,0,0,0l-5.2,5.1v-5.8
	c0-0.3-0.2-0.5-0.5-0.5c-0.3,0-0.5,0.2-0.5,0.5v5.8l-5.1-5.2c-0.2-0.2-0.5-0.2-0.7,0c0,0,0,0,0,0c-0.2,0.2-0.2,0.5,0,0.7l5.2,5.1
	h-5.8c-0.3,0-0.5,0.2-0.5,0.5c0,0.3,0.2,0.5,0.5,0.5h5.8l-5.2,5.1c-0.2,0.2-0.2,0.5,0,0.7c0.2,0.2,0.5,0.2,0.7,0l5.1-5.1v5.8
	c0,0.3,0.2,0.5,0.5,0.5s0.5-0.2,0.5-0.5v-5.8l5.2,5.1c0.2,0.2,0.5,0.2,0.7,0c0.2-0.2,0.2-0.5,0-0.7l-5.2-5.1h5.8
	c0.3,0,0.5-0.2,0.5-0.5C759.9,382.6,759.6,382.4,759.4,382.4z"/>
<linearGradient id="SVGID_1_" gradientUnits="userSpaceOnUse" x1="785.4446" y1="146.1048" x2="938.5234" y2="146.1048" gradientTransform="matrix(1 0 0 -1 -16.91 758.54)">
	<stop  offset="0" style="stop-color:#808080;stop-opacity:0.25"/>
	<stop  offset="0.54" style="stop-color:#808080;stop-opacity:0.12"/>
	<stop  offset="1" style="stop-color:#808080;stop-opacity:0.1"/>
</linearGradient>
<path class="st9" d="M920.4,504.1c0-1.2-0.2-2.4-0.5-3.6c-0.9-3.4-2.9-7.5-6.3-8.5c-3.4-1.1-6.8-2.5-9.9-4.2
	c-0.6-10.7,1.9-21.7-0.8-32.1c-1-3.8-2.7-7.4-3.1-11.3c-0.5-4.8,0.8-10-1.2-14.5c-1.5-3.5-4.9-6-8.5-7.3s-7.5-1.6-11.3-2
	c-4.8-0.4-20.3-2.2-25.8,2.1l0,0c-0.4,0.3-0.7,0.6-1,1l0,0c-0.1,0.2-0.2,0.3-0.3,0.5l0,0.1c-0.1,0.2-0.2,0.4-0.3,0.6l0,0
	c-0.1,0.2-0.1,0.5-0.2,0.8c0,0.1,0,0.2,0,0.2s0,0.4,0,0.5v0.3c0,0.2,0,0.4,0,0.5s0,0.1,0,0.2c0.1,0.9,0.2,1.8,0.2,2.7
	c0,0.4,0,0.9-0.1,1.3c-0.3,1.2-0.9,2.3-1.7,3.2l0,0l-0.2,0.3c-0.1,0.2-0.2,0.3-0.3,0.5s-0.2,0.3-0.3,0.4s-0.2,0.2-0.2,0.4
	c-0.1,0.2-0.2,0.3-0.3,0.5c0,0.1-0.1,0.2-0.2,0.3c-0.1,0.3-0.2,0.6-0.3,0.8c-0.2,0.9-0.3,1.8-0.1,2.7c0.3,1.1,0.7,2.2,1.4,3.1
	c0.2,0.4,0.5,0.8,0.8,1.2l0.7,1c-0.1,0.9-0.2,1.9-0.2,2.8c0,6.3,2.9,12.3,7.9,16.3c0.4,4.2,0.4,8.5-0.1,12.7
	c-0.1,0.9-0.2,1.8-0.3,2.7s-0.2,1.5-0.3,2.2c-1.5,0.2-3,0.1-4.4-0.3c-0.7-0.3-1.3-0.5-2-0.8c-2.9-0.7-5.9,2.2-8.8,1.3
	c0,0.1-0.1,0.3-0.1,0.4c-0.6-0.4-1.3-0.6-2-0.6c-1.7-0.1-3.1-1.3-4.3-2.5l-3.8-3.6c-0.2-0.2-0.5-0.5-0.7-0.7
	c-0.2-0.4-0.4-0.8-0.5-1.2c-0.6-2.1-2.2-3.7-3.7-5.3c-0.3-0.4-0.7-0.6-1.1-0.8c-0.2,0-0.3,0-0.5,0c-0.1-0.1-0.2-0.3-0.3-0.4
	c-0.3-0.3-0.5-0.6-0.8-0.8c-1.8-1.7-2-3.1-3.6-5c-1.4-1.8-2.6-3.7-3.7-5.6c-0.1-1-0.3-2.1-0.5-3.2c-0.5-2.5-1.2-4.9-2.2-7.3l-2-4.4
	l-0.2,0.2c-1.5-2.2-3-3.3-4.4-3.1c-2.3,0.5-3.5,5-3.1,10.9l0.8,6c0,0.1,0.1,0.3,0.1,0.5c-0.1,0.7-0.2,1.4-0.2,2.2
	c0,0.8,0.8,1.5,1.2,2.2c0.7,1,1,2.2,1,3.4c0,0.4-0.2,0.8-0.2,1.3c0.1,0.9,0.4,1.8,0.9,2.6l5,8.4l1,1.8l0.1,0.1
	c0.3,0.6,0.8,1.1,1.3,1.5c0.2,2.1,0.8,4.2,1.7,6.1c0.2,0.4,0.4,0.7,0.6,1.1c1.3,2.2,2.9,4.3,4.7,6.1l2.4,2.7
	c2.3,2.6,4.7,5.2,7.2,7.7c0.9,1,2,1.7,3.2,2.3c1.2,0.5,2.6,0.3,3.6-0.5c0,1.2,0,2.5,0,3.7c1.2,0.1,2,1.1,2,2.2
	c0,0.4-0.2,0.8-0.4,1.1c-2.1,5.4-4.2,10.8-7.4,15.7c2.2,1.3,4.3,2.9,6.2,4.7c1.2,1.3,2.3,2.8,3.2,4.4c0.1,0.7,0.2,1.5,0.2,2.2
	c0.7,11.9-3.9,23.8-8,35.1c-1.2,3.2-2.5,6.6-2.4,9.9c-0.8,0.5-1.5,1-2.2,1.6c0.8,2.1,0.5,4,0.4,6.3c0,1.4-0.3,2.7-0.8,4
	c-0.4,0.9-0.9,1.7-1.4,2.6c-2.6,4.6-3.2,10-3.7,15.2c-0.3,3.2,0.9,7-0.5,9.8c-2.5,4.8-4.7,10-5,15.4c0,1.2-0.2,2.4-0.5,3.6
	c-0.3,1-0.9,1.8-1.1,2.8c-0.3,1.3-0.4,2.7-0.2,4c0.2,4.8-0.5,9.6-2.1,14.1c-1.2,3.6-2.6,7.4-1.7,11.1c-2.4,2.5-3.9,5.8-4.2,9.3
	c0,0.9-0.1,1.8-0.3,2.7c-0.3,0.9-0.7,1.7-1.2,2.5c-2,3.7-3,7.8-2.7,12c-3,4.1-4.5,9.1-5.4,14.1s-1.3,10.1-2.4,15
	c-1.5,6.5-4.3,13.1-4.8,19.8c-3.2,2.1-4.6,6.1-5.3,9.9s-0.7,7.8-2.3,11.3c-0.8,1.8-2,3.5-2.8,5.3c-0.5,1.5-0.9,3-1.2,4.6
	c-0.5,2.4-0.9,5.2-0.3,7.5c-0.8,0.9-1.8,1.7-2.9,2.2c0.2-0.6,0.3-1.2,0.4-1.9c-2.6,2.3-7.3,1.5-9.3,4.3c-1.3,1.9-0.8,4.4,1,5.8
	c0.6,0.4,1.3,0.7,2.1,0.9c5,1.6,10.1,3.2,15.3,2.4c0.6-0.1,1.2-0.3,1.7-0.5c0.7-0.5,1.2-1.1,1.6-1.9c0.8-1.2,1.5-2.4,2.3-3.7
	c1.8,0.5,3.7,1,5.6,1.3c0.2,1.6,0.3,3.2,0.4,4.8c1,0.2,2.3,0.3,2.8-0.7c0.1-0.4,0.2-0.7,0.2-1.1c0-0.7,0.1-1.7,0.2-2.6h0.2
	c3.1,0.1,6.1-0.5,8.8-1.8c-1.1-8.9,2.5-17.5,5.5-25.9c3.2-8.8,6-17.8,8.8-26.8c2-6.3,4.2-12.4,6.2-18.8c2.5-8,4.9-16,7.4-24
	c1.1-3.5,2.2-7,3.4-10.5c2.6-7.1,5.7-14,9.3-20.6c1-1.9,2-3.8,2.8-5.7c1-2.4,1.7-4.9,2.5-7.4c1.7-5.1,3.8-10,6.3-14.8
	c0.1-0.1,0.1-0.2,0.2-0.4c0.8,3.3,1.6,6.7,2.2,10c0.7,4.1,0.8,8.3,0.2,12.4c-0.5,2.8-1.4,5.5-1.3,8.4c0.2,3.9,2.2,7.5,3.3,11.2
	c0.7,2.8,1,5.7,1.1,8.6c0.3,4.5,2.7,9.5,1,13.7c-5.3,13.2-2.8,28.1-5.8,42c-1.6,7.1-6.4,13.8-6,21.1c0.3,5.2,0.7,10.3,1.4,15.5
	c0.2,1.6,0.6,3.2,1.3,4.7c0.4,0.8,0.9,1.5,1.4,2.2c-0.4,0.2-0.8,0.6-1.1,1.6c-0.8,2.5,0,5.6,2.2,7c0.9,0.5,1.9,0.8,2.9,1
	c1.4,0.4,2.8,0.6,4.2,0.6c0.4,0,0.9-0.1,1.3-0.2c1.5,0.6,3.1,1.2,4.7,1.7c0,0.4,0.1,0.8,0.1,1.2c0,0.4,0.2,0.8,0.5,1.1
	c0.2,0.1,0.5,0.2,0.8,0.1h5.4c0-0.5,0-0.9,0-1.4c1.3,0.1,2.5-0.3,3.5-1.1c0.5-0.6,0.8-1.3,1-2.1c1.5-5,2.9-10,4.4-15.1
	c1.8-5.6,2.5-11.4,2.2-17.2c-1.9-18.4,2.3-36.9,0.9-55.4c-0.8-11.1-0.3-22.3,1.7-33.2c0.5-2.5,1-5,1.2-7.5c0.4-4.7-0.1-9.4,0.2-14
	c0.1-1.6,0.3-3.2,0.5-4.8c1.4-10,2.1-20.1,2.2-30.2c0-3.3-0.2-6.7-0.6-10c1-0.3,2-0.8,2.7-1.6c0.9-1.2,0.7-2.8,0.7-4.3
	c0-3.5,1.5-6.9,2.7-10.2c1.5-4.6,2.8-9.3,3.8-14.1c1-3.8,1.6-7.8,1.7-11.8c0-0.4,0-0.8-0.1-1.2c0.4-0.3,0.7-0.6,0.9-1
	c0.3-0.6,0.4-1.2,0.5-1.8c0.4-2.5,0.7-5.1,1.1-7.7c0.3-1.8,0.5-3.7,0.8-5.5l3.2-22.2c0.3-1.9,0.5-3.8,0.8-5.8l0.8-5.7
	c0.1-0.7,0.2-1.4,0.3-2C923,514.1,920.6,508.7,920.4,504.1z M893.8,587.2c-1.2-2.8-2.3-5.7-2-8.7h-0.1c0.3-0.9,0.2-1.9-0.1-2.8
	c-0.3-0.7-0.8-1.3-1.2-2.1c-0.4-0.9-0.5-1.8-0.5-2.8c-0.2-6.1,0.2-12.2,1.4-18.1c0.1-0.7,0.3-1.4,0.4-2.1c0.4-0.2,0.8-0.5,1.1-0.9
	c0.5-0.6,1-1.3,1.3-2c1.1-2.3,2.2-4.6,3.1-6.9c0.3-0.8,0.8-1.6,1.5-1.8c-0.2,5.8,0.4,11.8-1.9,17.1c-0.5,0.9-0.8,1.8-1,2.7
	c-0.2,1.5,0.4,3,0.2,4.5c-0.1,0.8-0.4,1.5-0.6,2.2c-0.2,0.8,0,1.6,0.6,2.1c0.1,0.1,0.3,0.2,0.4,0.2c-0.1,0.4-0.1,0.8-0.2,1.2
	c-0.1,0.8-0.1,1.6-0.2,2.1c-0.2,2.4-0.3,4.9-0.3,7.4c0,2.7,0.1,5.3,0.1,8c0,0.8-0.1,1.5-0.4,2.3c-0.2,0.4-0.5,0.7-0.8,1
	C894.5,588.7,894.2,587.9,893.8,587.2L893.8,587.2z"/>
<ellipse transform="matrix(0.9796 -0.2007 0.2007 0.9796 -74.9086 172.2057)" class="st10" cx="811.7" cy="455.5" rx="5.6" ry="16"/>
<path class="st3" d="M861.5,792.5c-0.8,2.5,0,5.6,2.2,6.9c0.9,0.5,1.9,0.8,2.9,1c1.4,0.4,2.8,0.6,4.2,0.6c1.7-0.1,3.4-0.8,5.1-1
	c0.2-0.1,0.4,0,0.6,0.1c0.2,0.2,0.3,0.4,0.2,0.7c0,1,0.1,2,0.2,2.9c0,0.4,0.2,0.8,0.5,1.1c0.2,0.1,0.5,0.2,0.8,0.1h5.4
	c0.1-4.8-0.4-9.5-1.5-14.1c-0.1-0.4-0.2-0.7-0.4-1c-0.5-0.5-1.1-0.9-1.7-1c-1.3-0.6-2.8-0.8-4.2-0.7c-1.8,0.2-3.2,1.4-4.7,2.3
	s-3.5,1.8-5.3,1.3S862.4,789.8,861.5,792.5z"/>
<path class="st10" d="M781.9,788.1c-1.5,1.6-3.4,2.9-5.5,3.7l-0.9,0.4c-0.1,0-0.2,0.1-0.3,0.2c0,0.2,0,0.3,0.1,0.5
	c1.6,2.4,4.6,3.5,7.3,2.7c0.6-0.1,1.1-0.4,1.6-0.8c0.8-0.9,1.2-2,1.2-3.2c0.3-1.2,0.3-2.5-0.2-3.7
	C784,784.8,783.5,786.2,781.9,788.1z"/>
<path class="st3" d="M802.7,800.5c0,0.4,0,0.8-0.2,1.1c-0.5,0.9-1.8,0.9-2.8,0.7c-0.2-3.4-0.6-6.8-1.2-10.1
	c-1.9-0.1-3.3,1.8-4.4,3.4l-2.7,4.2c-0.4,0.7-0.9,1.4-1.6,1.9c-0.5,0.3-1.1,0.5-1.7,0.5c-5.1,0.8-10.3-0.8-15.2-2.4
	c-0.7-0.2-1.4-0.5-2.1-0.9c-1.8-1.3-2.3-3.9-1-5.8c2.1-2.8,6.7-2,9.3-4.3c-0.3,1.6-0.7,3.2-1.3,4.8c3.5-0.5,5.8-3.7,8.5-5.8
	c0.7-0.6,1.5-1,2.4-1.2c0.7-0.1,1.4,0,2,0.2c3.2,0.8,6.2,2.3,8.8,4.3c1,0.8,2.7,2,3.2,3.3C803.2,796,802.7,798.8,802.7,800.5z"/>
<circle class="st10" cx="871.5" cy="449.9" r="20.7"/>
<path class="st3" d="M912.2,571.8c-0.1,3.9-0.6,7.9-1.7,11.7c-1,4.7-2.2,9.4-3.8,14c-1.2,3.3-2.7,6.7-2.7,10.2
	c0,1.5,0.2,3.1-0.7,4.3c-0.8,0.8-1.8,1.4-2.9,1.7c-1.1,0.3-2,1.1-2.5,2.2c-0.9-1.4-1.6-2.9-2.1-4.6c-1.8-5.5-3.5-11-5-16.6
	c-0.3-0.6-0.2-1.4,0.1-2c0.3-0.2,0.5-0.4,0.9-0.5c1-0.4,2-1,2.8-1.8c0.4-0.3,0.7-0.7,0.9-1.2c0.3-0.7,0.4-1.5,0.4-2.3
	c0-2.7,0-5.3-0.1-7.9c0-2.4,0.1-4.9,0.3-7.3c0-0.5,0.1-1.2,0.2-2.1c0.2-1.6,0.5-3.4,1.3-4c1.3-0.8,5.1,0.3,6.5,0.5
	c2.5,0.3,5,0.7,7.4,1.2C912,568.8,912.2,570.3,912.2,571.8z"/>
<path class="st3" d="M828.8,473c-0.8,1.6-2.7,2.4-4.2,3.4l-5.1,3.5c-0.7,0.6-1.6,0.9-2.5,0.9c-0.8-0.3-1.5-0.9-1.9-1.8
	c0,0,0-0.1,0-0.1l-1-1.8l-5-8.4c-0.6-0.8-0.9-1.6-0.9-2.6c0-0.4,0.2-0.8,0.2-1.3c0-1.2-0.3-2.4-1-3.4c-0.4-0.8-1.2-1.4-1.2-2.2
	c0-1.1,0.2-2.2,0.6-3.2c0.5-0.9,1.3-1.8,2.2-2.3c0.5-0.3,1-0.7,1.5-1c0.3-0.2,0.6-0.3,0.9-0.4c0.8-0.2,1.7,0.5,2.5,0.5
	c3.6,2.4,5,7,7.8,10.3c1.6,1.9,1.8,3.3,3.6,5c0.3,0.3,0.6,0.5,0.8,0.8c0.4,0.4,0.7,0.8,0.9,1.3C827.2,471.2,829.2,472.2,828.8,473z"
	/>
<path class="st10" d="M864.2,470.5c1.5,3.2,2.7,6.6,2.2,10.1c-0.1,0.9-0.4,1.8-0.9,2.7c-1.4,2.2-4.5,2.6-7.1,2.7
	c-1.1-0.1-2.2,0.3-3.1,1c-0.7,1.1-0.6,2.5,0.2,3.4c0.8,0.9,1.9,1.6,3.1,2c4.2,1.8,8.7,3.3,13.2,2.9c2.1-0.2,4.1-0.8,6.2-1.1
	c2.3-0.2,4.6-0.4,6.9-0.4c2.7-0.1,5.4-0.4,8.1-0.6l7.2-0.7c0.4,0,0.8-0.1,1.1-0.4c0.5-0.6-0.2-1.5-0.8-2c-3.8-2.8-8.7-4.8-10.8-9
	c-1-2-1.3-4.4-2-6.5s-1.9-4.1-2.4-6.3c-0.2-1.9-0.4-3.9-0.3-5.8c0-2-0.7-3.9-2-5.3c-1.4-1.3-3.5-1.7-5.4-1.8
	c-4.8-0.2-9.9,0.9-13.3,4.3c-0.9,0.9-1.7,2-2.6,2.8s-2.2,1.1-1.6,2.1s1.8,1.8,2.5,2.7C863.1,468.3,863.7,469.4,864.2,470.5z"/>
<path class="st3" d="M905,499.6c-1.3,7.7-3.3,15.3-6.1,22.5c-1.4,3.3-2.6,6.7-3.6,10.1c-0.8,3.1-0.6,6.4-1.3,9.5
	c-0.9,3.9-1.8,7.8-2.5,11.7c-1.2,6-1.7,12-1.4,18.1c0,1,0.2,1.9,0.5,2.8c0.3,0.7,0.9,1.3,1.2,2.1c0.5,1.3,0.4,2.8-0.3,4
	c-0.5,1.1-1.2,2.2-2.1,3.1c-9.3,2.8-19.3,1.9-29,2.5c-9,0.5-18,2.4-26.8,0.8c-1-4,0.7-8.2,2.1-12.1c4.2-11.3,8.7-23.1,8-35
	c-0.1-1.4-0.2-2.8-0.5-4.1c-1.5-8.4,0.1-17.1,2.7-25.3c1.6-5.1,1.5-10.5,1.1-15.8c-0.2-1.7-0.2-3.4-0.1-5.2c0.1-1.8,0.8-3.4,1.9-4.8
	c0-0.1,0.1-0.1,0.1-0.2s0.4-0.1,0.8,0l0,0c0.2,0.1,0.3,0.1,0.5,0l0.1-0.1c0.1-0.1,0.2-0.1,0.3,0c0.2,0.1,0.4,0.6,0.9,0.7
	c0.7,0.1,1.5,0.2,2.2,0.2c0.9,0,1.8,0.2,2.7,0.4h0.1c1.3,0.2,2.6,0.1,3.9-0.3c0.8-0.2,1.6-0.5,2.4-0.9c0.2-0.2,1.6-0.5,1.9-0.6
	c0.9-0.5,0.7-3.1,0.9-4.2c0.1-1.1,0.4-2.1,0.8-3.1c0.9-1.5,2.5-2.4,4.3-2.5c1.7,0,3.4,0.1,5.1,0.5c3.7,0.5,7.5,0.4,11.2,1.3
	c1.8,0.4,3.8,1.1,5.5,0.2c0.5,0.1,0.5,0.5,0.5,1c0,0.5-0.1,0.9-0.3,1.4c-0.6,2.8,1.5,5.3,3.5,7.3c0.8,0.9,1.8,1.7,3,2.3
	c1,0.5,2,0.7,3,1.2c0.8,0.4,1.5,1.1,2,1.8c0.6,0.9,1,1.9,1.1,2.9C905.5,495.8,905.4,497.7,905,499.6z"/>
<path class="st11" d="M905,499.6c-1.3,7.7-3.3,15.3-6.1,22.5c-1.4,3.3-2.6,6.7-3.6,10.1c-0.8,3.1-0.6,6.4-1.3,9.5
	c-0.9,3.9-1.8,7.8-2.5,11.7c-0.2,0.1-0.4,0.2-0.7,0.3c-1.2,0.6-2.6,1-3.9,1.3c-2.4,0.3-4.9,0.2-7.3-0.2l-14.3-1.9
	c-5.7-0.8-11.8-1.7-16-5.6c-2.3-2.1-3.9-4.9-5.6-7.6c-0.1-1.4-0.2-2.8-0.5-4.1c-1.5-8.4,0.1-17.1,2.7-25.3
	c1.6-5.1,1.5-10.5,1.1-15.8c-0.2-1.7-0.2-3.4-0.1-5.2c0.1-1.8,0.8-3.4,1.9-4.8c0.3-0.1,0.6-0.2,0.9-0.2l0,0c0.2,0,0.4-0.1,0.6-0.1
	h0.3c0.3,0,0.7,0,1,0.1c0.7,0.2,1.3,0.5,2,0.8h0.1c0.9,0.3,1.8,0.4,2.7,0.4c1.3,0,2.7-0.2,4-0.3c1.6-0.3,3.3,0,4.7,0.8
	c0.9,0.7,1.8,1.6,2.6,2.4c1,0.8,2.1,1.4,3.3,1.8c8.6,3.3,18.2,3.1,26.6-0.6c0.8-0.5,1.7-0.7,2.7-0.7c0.7,0.1,1.3,0.4,1.9,0.8
	c0.6,0.3,1.2,0.7,1.8,1c0.6,0.9,1,1.9,1.1,2.9C905.5,495.7,905.4,497.7,905,499.6z"/>
<path class="st1" d="M913.7,493c-4-1.2-7.8-2.9-11.4-5c-0.6-0.4-1.2-0.7-1.9-0.8c-0.9,0-1.9,0.2-2.7,0.7c-8.5,3.6-18,3.8-26.6,0.6
	c-1.2-0.4-2.3-1-3.3-1.8c-0.8-0.9-1.7-1.7-2.6-2.4c-3.3-2.1-7.8,0.4-11.5-1c-0.7-0.3-1.3-0.5-2-0.8c-2.9-0.7-5.9,2.2-8.7,1.3
	c-1.1,2.9-1.9,5.9-2.3,8.9c-0.4,3.5-0.6,7-0.7,10.5c0,2.1-0.1,4.2,0,6.3c0.7,0.1,1.3,0.5,1.7,1.1c0.3,0.7,0.2,1.5-0.2,2.1
	c-2.1,5.4-4.2,10.8-7.4,15.6c2.2,1.3,4.3,2.9,6.2,4.7c3.5,3.7,5.2,8.9,9,12.3c4.3,3.8,10.3,4.8,16,5.5l14.3,1.9
	c2.4,0.5,4.9,0.5,7.3,0.2c1.4-0.2,2.7-0.7,3.9-1.3c0.8-0.3,1.6-0.8,2.2-1.4c0.5-0.6,1-1.3,1.3-2c1.1-2.3,2.2-4.6,3.1-6.9
	c0.3-0.8,0.8-1.8,1.7-1.9c5.3-4.8,10.3-9.7,15.6-14.5c2.1-1.8,4-3.8,5.7-6c2.6-3.9,0.2-9.4,0-14.1c0-1.2-0.2-2.4-0.5-3.6
	C919,498.1,917,494,913.7,493z"/>
<path class="st11" d="M828.8,473c-0.8,1.6-2.7,2.4-4.2,3.4l-5.1,3.5c-0.7,0.6-1.6,0.9-2.5,0.9c-0.8-0.3-1.5-0.9-1.9-1.8
	c0-0.2,0-0.5,0-0.7c0-0.8,0.1-1.6,0.3-2.4c0.5-1.1,1.3-2.1,2.2-2.9c1.9-1.8,4.1-3.1,6.6-4c0.4-0.1,0.8-0.2,1.2-0.1
	c0.2,0,0.3,0.1,0.4,0.2c0.4,0.4,0.7,0.8,0.9,1.3C827.2,471.2,829.2,472.2,828.8,473z"/>
<path class="st1" d="M840.7,483.5c-1.7-0.1-3.1-1.3-4.3-2.5l-3.8-3.5c-0.3-0.2-0.5-0.5-0.7-0.7c-0.2-0.4-0.4-0.8-0.5-1.2
	c-0.8-2-2.1-3.8-3.7-5.3c-0.3-0.4-0.7-0.6-1.1-0.8c-0.4-0.1-0.8,0-1.2,0.1c-2.4,0.9-4.7,2.2-6.6,4c-1,0.8-1.7,1.7-2.2,2.9
	c-0.3,0.8-0.4,1.6-0.3,2.4c0,2.6,0.6,5.2,1.7,7.6c0.2,0.4,0.4,0.7,0.6,1.1c1.3,2.2,2.9,4.3,4.7,6.1l2.4,2.7c2.3,2.6,4.7,5.2,7.2,7.7
	c0.9,1,2,1.7,3.2,2.3c1.3,0.5,2.7,0.3,3.7-0.6c0.5-0.6,0.8-1.2,1.1-1.9c1.5-4,3-8.2,3.1-12.5c0-1.7-0.1-3.5-0.2-5.2
	C843.7,484.4,842.4,483.6,840.7,483.5z"/>
<path class="st12" d="M901.3,623.5c-0.1,10.1-0.8,20.1-2.1,30.1c-0.2,1.6-0.4,3.2-0.5,4.8c-0.3,4.7,0.2,9.4-0.2,14
	c-0.2,2.5-0.8,5-1.2,7.5c-2,10.9-2.5,22.1-1.7,33.2c1.4,18.4-2.8,36.9-0.9,55.2c0.2,3.6,0,7.2-0.6,10.7c-0.4,2.2-0.9,4.3-1.5,6.5
	c-1.5,5-2.9,10-4.4,15c-0.2,0.8-0.5,1.5-1,2.1c-1,0.9-2.4,1.3-3.8,1.1c-5.8-0.2-11.2-2.7-16.4-5.1c-0.6-0.2-1.2-0.6-1.7-1
	c-1.1-1.1-1-2.9-1.5-4.4s-1.8-2.9-2.5-4.4c-0.6-1.4-1-3-1.1-4.5c-0.7-5.1-1.1-10.3-1.4-15.4c-0.4-7.3,4.4-13.9,6-21
	c3-13.9,0.5-28.8,5.8-41.9c1.7-4.2-0.8-9.2-1-13.7c-0.1-2.9-0.5-5.8-1.1-8.6c-1-3.8-3.1-7.3-3.3-11.2c-0.1-2.8,0.8-5.6,1.3-8.3
	c0.6-4.1,0.6-8.3-0.2-12.3c-0.5-3.4-1.3-6.7-2.2-10l-0.2,0.4c-2.4,4.8-4.5,9.7-6.3,14.8c-0.8,2.5-1.5,5-2.5,7.3
	c-0.8,2-1.8,3.8-2.8,5.7c-3.6,6.6-6.6,13.5-9.2,20.5c-1.2,3.5-2.3,7-3.4,10.5l-7.4,24c-2,6.3-4.2,12.4-6.2,18.7
	c-2.8,9-5.5,17.9-8.8,26.7c-3,8.3-6.6,17-5.5,25.8c-2.8,1.3-5.8,1.9-8.8,1.8c-5.2-0.5-10.2-1.7-15-3.6c-1.9-0.7-3.9-1.5-5.2-3.1
	c-2.2-2.7-1.7-6.7-1-10.1c0.3-1.6,0.7-3.1,1.2-4.6c0.8-1.8,2-3.5,2.8-5.3c1.6-3.5,1.7-7.4,2.3-11.2s2-7.8,5.2-9.8
	c0.5-6.7,3.3-13.2,4.8-19.7c1.1-4.9,1.5-10,2.4-15s2.3-10,5.4-14c-0.2-4.2,0.7-8.3,2.7-12c0.5-0.8,0.9-1.7,1.2-2.5
	c0.2-0.9,0.3-1.8,0.3-2.6c0.3-3.5,1.8-6.7,4.2-9.3c-1-3.7,0.4-7.5,1.6-11c1.6-4.5,2.3-9.3,2.1-14.1c-0.2-1.3-0.1-2.7,0.2-4
	c0.3-1,0.8-1.8,1.2-2.8c0.3-1.2,0.4-2.4,0.5-3.6c0.4-5.4,2.6-10.5,5-15.3c1.4-2.8,0.2-6.7,0.5-9.8c0.5-5.2,1.1-10.6,3.7-15.2
	c0.5-0.9,1-1.7,1.4-2.6c0.5-1.3,0.8-2.6,0.8-4c0.1-2.3,0.4-4.2-0.4-6.3c5.3-4.5,12.7-5.7,19.6-6s14,0.3,20.8-1.2
	c2-0.5,4-1.1,6.1-1.4c4.8-0.7,9.7,0.4,14.4,1.5c-0.3,3,0.8,5.9,2,8.7C898.7,599.1,901.2,611.3,901.3,623.5z"/>
<path class="st11" d="M877.8,625.8l-11.5,25.8c-0.5-3.4-1.3-6.7-2.2-10l-0.2,0.4v-0.5l6.3-13.8L877.8,625.8z"/>
<path class="st11" d="M912.2,571.8c-0.7,0.5-1.5,0.8-2.3,0.8c-1.3,0-2.5-0.1-3.7-0.5l-9-2.2c-0.3-0.1-0.6-0.2-0.8-0.3
	c0.2-1.6,0.5-3.4,1.3-4c1.3-0.8,5.1,0.3,6.5,0.5c2.5,0.3,5,0.7,7.4,1.2C911.9,568.8,912.1,570.3,912.2,571.8z"/>
<path class="st1" d="M919.8,512.3c0.2,0.8,0.5,1.7,0.6,2.5c0.3,2.1,0.2,4.2-0.2,6.2l-0.8,5.7l-0.8,5.8l-3.2,22.1l-0.8,5.5l-1.1,7.7
	c-0.1,0.6-0.2,1.3-0.5,1.8c-0.7,1.1-1.8,1.8-3.1,1.8c-1.3,0-2.5-0.1-3.7-0.5l-9-2.3c-0.4-0.1-0.8-0.2-1.1-0.5
	c-0.6-0.5-0.8-1.4-0.6-2.1c0.1-0.8,0.5-1.5,0.6-2.2c0.2-1.5-0.4-3-0.2-4.5c0.2-0.9,0.6-1.8,1-2.7c3-6.6,1.3-14.4,2.3-21.6
	c0.9-5.7,3.3-11,6.9-15.4c2.2-2.8,4.8-5.3,7.7-7.5c1.1-0.9,2.9-2.7,4.3-3C919.9,508.8,919.5,511.1,919.8,512.3z"/>
<path class="st12" d="M851.7,426.2c-0.7,2.1,0.4,4.4-0.1,6.5c-0.5,2.4-2.7,4-3.4,6.4c-1,3.6,2.1,6.9,4.3,9.9
	c8.3,11.1,7.2,26.6,4.4,40.2c-2.3,10.9-5.4,21.6-9.5,32c-1.2,3.2-2.6,6.5-5.1,8.9c4.6-1.3,9.5-2.7,14.1-1.4c5.8,1.6,10.9,7.3,16.8,6
	c3.6-0.8,6.1-4,9.3-5.7c6-3.2,13.2-1.2,19.9-0.2c1.4,0.3,3,0.3,4.3-0.2c1.1-0.6,2-1.4,2.6-2.4c3-3.8,4.8-8.5,5.1-13.3
	c0.3-4.9-1.5-9.7-4.9-13.1c-1.4-1.3-3.1-2.4-4.2-4c-1.1-1.8-1.6-3.9-1.7-6.1c-0.8-11,1.9-22.2-0.9-32.9c-1-3.8-2.6-7.4-3.1-11.3
	c-0.5-4.8,0.8-10-1.2-14.4c-1.5-3.5-4.8-6-8.4-7.3s-7.4-1.6-11.2-2C873.5,421.4,854,419.1,851.7,426.2z"/>
<g class="st13">
	<path d="M856.9,489.2c-2.3,10.9-5.4,21.5-9.4,31.9c0.7-1.4,1.3-2.8,1.8-4.2c4-10.4,7.2-21.1,9.5-32c2.8-13.6,3.9-29-4.4-40.1
		c-2-2.7-4.6-5.5-4.5-8.7c-0.7,0.9-1.3,2-1.7,3.1c-1,3.6,2.1,6.9,4.3,9.9C860.8,460.2,859.7,475.6,856.9,489.2z"/>
	<path d="M851.7,431.8c0.8-1,1.4-2.1,1.8-3.4c0.2-1.5,0.1-3-0.1-4.5c-0.8,0.6-1.3,1.4-1.7,2.3C851.1,428,851.8,429.9,851.7,431.8z"
		/>
	<path d="M911.3,521.8c-0.7,1-1.6,1.8-2.6,2.4c-1.4,0.5-2.9,0.6-4.3,0.2c-6.7-1-14-3.1-19.9,0.2c-3.2,1.7-5.7,4.9-9.3,5.7
		c-5.9,1.3-11-4.3-16.8-6c-4.1-1.2-8.5-0.2-12.7,1c-0.8,1.8-1.9,3.4-3.3,4.8c4.6-1.3,9.5-2.7,14.1-1.4c5.8,1.6,10.9,7.3,16.8,6
		c3.6-0.8,6.1-4,9.3-5.7c6-3.2,13.2-1.2,19.9-0.2c1.4,0.3,3,0.3,4.3-0.2c1.1-0.6,2-1.4,2.6-2.4c1.8-2.4,3.2-5.1,4.1-7.9
		C912.9,519.5,912.1,520.7,911.3,521.8z"/>
</g>
</svg>
