<svg height="511pt" viewBox="0 0 511 511.99933" width="511pt" xmlns="http://www.w3.org/2000/svg"><g fill="#020202"><path d="m230.5 82c0 5.523438-4.476562 10-10 10s-10-4.476562-10-10 4.476562-10 10-10 10 4.476562 10 10zm0 0"/><path d="m.5 292c0 121.308594 98.691406 220 220 220s220-98.691406 220-220c0-55.34375-20.386719-107.605469-57.601562-148.257812l3.742187-3.742188h55.859375c2.652344 0 5.195312-1.054688 7.070312-2.929688l60-60c2.859376-2.859374 3.714844-7.160156 2.167969-10.898437-1.546875-3.734375-5.195312-6.171875-9.238281-6.171875h-50v-50c0-4.042969-2.4375-7.691406-6.175781-9.238281-3.734375-1.546875-8.035157-.6914065-10.894531 2.167969l-60 60c-1.875 1.875-2.929688 4.417968-2.929688 7.070312v55.855469l-3.746094 3.746093c-28.667968-26.21875-63.519531-44.328124-101.378906-52.574218-5.398438-1.175782-10.726562 2.246094-11.898438 7.640625-1.175781 5.398437 2.246094 10.726562 7.640626 11.898437 34.113281 7.433594 65.539062 23.675782 91.484374 47.191406l-28.304687 28.304688c-29.269531-25.902344-66.460937-40.0625-105.796875-40.0625-88.226562 0-160 71.777344-160 160s71.773438 160 160 160c88.222656 0 160-71.777344 160-160 0-39.335938-14.160156-76.527344-40.0625-105.796875l28.308594-28.308594c33.449218 36.863281 51.753906 84.105469 51.753906 134.105469 0 110.28125-89.722656 200-200 200-110.28125 0-200-89.71875-200-200 0-93.375 66.1875-175.566406 157.382812-195.433594 5.394532-1.175781 8.816407-6.5 7.640626-11.898437-1.175782-5.394531-6.5-8.816407-11.898438-7.640625-98.753906 21.511718-173.125 109.699218-173.125 214.972656zm392-217.855469 40-40v35.855469c0 5.523438 4.476562 10 10 10h35.855469l-40 40h-45.855469zm-32 217.855469c0 77.195312-62.804688 140-140 140s-140-62.804688-140-140 62.804688-140 140-140c33.992188 0 66.160156 12.089844 91.628906 34.230469l-28.363281 28.363281c-17.820313-14.636719-39.9375-22.59375-63.265625-22.59375-55.140625 0-100 44.859375-100 100s44.859375 100 100 100 100-44.859375 100-100c0-23.328125-7.960938-45.449219-22.59375-63.265625l28.363281-28.363281c22.140625 25.46875 34.230469 57.640625 34.230469 91.628906zm-120 0c0 11.027344-8.972656 20-20 20s-20-8.972656-20-20 8.972656-20 20-20c5.335938 0 10.359375 2.082031 14.136719 5.859375 3.78125 3.78125 5.863281 8.804687 5.863281 14.140625zm.320312-34.464844c-6.09375-3.605468-13.058593-5.535156-20.320312-5.535156-22.058594 0-40 17.945312-40 40s17.941406 40 40 40c22.054688 0 40-17.945312 40-40 0-7.261719-1.929688-14.226562-5.539062-20.320312l28.699218-28.699219c10.90625 13.976562 16.839844 31.042969 16.839844 49.019531 0 44.113281-35.890625 80-80 80-44.113281 0-80-35.886719-80-80s35.886719-80 80-80c17.972656 0 35.042969 5.929688 49.019531 16.839844zm0 0"/></g></svg>