<?xml version="1.0" encoding="utf-8"?>
<!-- Generator: Adobe Illustrator 26.1.0, SVG Export Plug-In . SVG Version: 6.00 Build 0)  -->
<svg version="1.1" id="Layer_1" xmlns="http://www.w3.org/2000/svg" xmlns:xlink="http://www.w3.org/1999/xlink" x="0px" y="0px"
	 viewBox="0 0 1077.4 752.9" style="enable-background:new 0 0 1077.4 752.9;" xml:space="preserve">
<style type="text/css">
	.st0{fill:#1D2F38;}
	.st1{fill:#FFB9B9;}
	.st2{opacity:0.1;enable-background:new    ;}
	.st3{fill:#17A550;}
	.st4{fill:#F7FAFC;}
	.st5{opacity:0.3;fill:#1D2F38;enable-background:new    ;}
	.st6{fill:none;stroke:#1D2F38;stroke-width:2;stroke-miterlimit:10;}
</style>
<ellipse class="st0" cx="455" cy="681.9" rx="455" ry="23"/>
<ellipse class="st0" cx="899.3" cy="721" rx="178" ry="9"/>
<ellipse class="st0" cx="396.1" cy="743.9" rx="178" ry="9"/>
<path class="st0" d="M833.1,473.4l16-11.1l33.1-42.6c2-2.5,1.5-6.2-1-8.1l0,0c-2.5-2-6.2-1.5-8.1,1l-33.1,42.6L833.1,473.4z"/>
<path class="st0" d="M975.7,68.3c0,0-20.1-18-47.1,15.9s-69.3,50.6-79,63.7c0,0,40.2-16.6,54-23.6c13.9-6.9,13.2-5.5,13.2-5.5
	s-18.7,13.2-22.2,26.3c-3.5,13.2-0.7,24.2-6.9,37.4s119.2,9,119.2,9s12.5-21.5,9-43.6S1014.5,71.1,975.7,68.3z"/>
<path class="st1" d="M936.2,121.6c0,0,4.8,33.9-15.9,41.6c-20.8,7.6-13.2,18-13.2,18l31.2,15.2l33.3-10.4l11.1-16.6
	c0,0-18-4.2-13.2-16.6c4.8-12.5,6.2-16.6,6.2-16.6L936.2,121.6z"/>
<path class="st2" d="M936.2,121.6c0,0,4.8,33.9-15.9,41.6c-20.8,7.6-13.2,18-13.2,18l31.2,15.2l33.3-10.4l11.1-16.6
	c0,0-18-4.2-13.2-16.6c4.8-12.5,6.2-16.6,6.2-16.6L936.2,121.6z"/>
<path class="st1" d="M1023.5,218.6c0,0-4.8,63.7-3.5,66.5s0,99.1,0,99.1s9.7,52-2.8,54.7s-9.7-58.2-9.7-58.2l-12.5-80.4l1.4-79.7
	L1023.5,218.6z"/>
<path class="st2" d="M1023.5,218.6c0,0-4.8,63.7-3.5,66.5s0,99.1,0,99.1s9.7,52-2.8,54.7s-9.7-58.2-9.7-58.2l-12.5-80.4l1.4-79.7
	L1023.5,218.6z"/>
<path class="st1" d="M888.4,410.5c0,0-22.9,86.6-22.2,128.9s9.7,101.1,9.7,101.1s1.4,25.6-0.7,28.4s10.4,14.5,10.4,14.5l13.2-7.6
	l4.8-5.5v-4.8c0,0-7.6-23.6-1.4-42.3s9.7-65.8,3.5-80.4l43-127.5L888.4,410.5z"/>
<path class="st0" d="M887,672.4c0,0-8.3-10.4-13.9-6.9s-14.5,27-14.5,27s-31.2,29.8-9,31.2s31.9-6.2,34.6-11.8s28.4-20.1,28.4-20.1
	s-2.8-26.3-6.9-27s-10.4,10.4-10.4,10.4L887,672.4z"/>
<path class="st1" d="M963.9,416.1V502c0.1,10.4,0.8,20.8,2.1,31.2c2.1,15.2-11.8,128.9-11.8,128.9l1.4,20.1l17.3-1.4l2.1-17.3
	l24.9-76.2c0,0,8.3-46.4,4.2-63.7c-4.2-17.3,21.5-128.2,21.5-128.2L963.9,416.1z"/>
<path class="st0" d="M950,677.3l5.1-1.1c0,0,3.9-8.6,8.7-6.5c3.4,1.6,6.6,3.5,9.6,5.8l2.1,3.9c0,0,4.8,10.4,11.1,17.3
	s13.2,22.2,2.8,23.6s-24.2,2.1-28.4-1.4s-1.4-9-5.5-10.4s-7.6-5.5-6.9-6.9S950,677.3,950,677.3z"/>
<circle class="st1" cx="963.9" cy="114.7" r="33.3"/>
<path class="st3" d="M905.7,168.7l9.2-3.2c0,0-3.6,6,15.8,9.4s39.5,4.7,48.5-6.7c0,0,3.5-1.7,8.3,3.2c4.8,4.8,7.6,3.5,7.6,3.5
	l-3.5,18l-6.9,33.3l-9,24.9l-25.6-5.5l-27.7-20.1l-10.4-27v-24.9L905.7,168.7z"/>
<path class="st3" d="M990.2,178.4l6.9-4.8c0,0,23.6,4.2,24.9,15.2l-18,34.6c3.7,9.6,3.4,20.3-0.7,29.8c-6.9,15.9-6.2,19.4-6.2,19.4
	l-4.8,20.8l-88,6.9c0,0-3.5-8.3-4.8-9.7s-1.4-6.2,0-6.2s0-2.1-1.4-4.2s-2.1-2.8,0-5.5s-3.5-27.7-3.5-27.7v-27l-23.6-31.2
	c0,0,8.3-12.5,12.5-13.9c4.2-1.4,23.9-6.8,23.9-6.8l4.5,6.6l6.2,50.1l9,30.5l37.9-6.4l14.7-24.7l9.7-29.1L990.2,178.4z"/>
<path class="st3" d="M1016.6,184.7l5.5,4.2c0,0,4.8,38.8,3.5,41.6s-25.6,5.5-26.3,4.2S1016.6,184.7,1016.6,184.7z"/>
<path class="st1" d="M866.2,226.9c0,0,4.8,63.7,3.5,66.5s0,99.1,0,99.1s-9.7,52,2.8,54.7s9.7-58.2,9.7-58.2l12.5-80.4l-1.4-79.7
	L866.2,226.9z"/>
<path class="st0" d="M902.2,165.3l6.9,45.7c0,0-6.2,67.9-4.8,81.7l1.4,4.2c0,0-2.8-1.4-3.5,1.4s0,11.8,0,11.8s-4.2,4.2-5.5,27
	s-18,77.6-11.8,79.7s43.6,12.5,63.7,10.4s92.1-26.3,91.4-32.6s-35.3-94.2-35.3-94.2s-6.2-10.4-6.2-11.8s8.3-6.9,6.2-12.5
	s-13.2-63.7-13.2-63.7l7.6-41.6l-10.4-2.8l-7.6,40.2c0,0-29.8,14.5-61,1.4l-6.9-47.1L902.2,165.3z"/>
<path class="st3" d="M876.6,186.8l-5.5,2.1c0,0-10.4,43.6-7.6,43.6s36,4.2,36,2.8s-6.2-35.3-6.2-35.3L876.6,186.8z"/>
<path class="st0" d="M937.6,85.6c0,0,51.3,35.3,65.1,19.4s-24.2-29.8-24.2-29.8l-31.9-3.5L937.6,85.6z"/>
<path class="st4" d="M139.6,0v676h581V0L139.6,0z M170.6,620c-5.5,0-10-4.5-10-10s4.5-10,10-10c5.5,0,10,4.5,10,10
	S176.1,620,170.6,620z M170.6,571c-5.5,0-10-4.5-10-10s4.5-10,10-10c5.5,0,10,4.5,10,10S176.1,571,170.6,571z M170.6,523
	c-5.5,0-10-4.5-10-10c0-5.5,4.5-10,10-10c5.5,0,10,4.5,10,10C180.6,518.5,176.1,523,170.6,523z M170.6,474c-5.5,0-10-4.5-10-10
	s4.5-10,10-10c5.5,0,10,4.5,10,10S176.1,474,170.6,474z M170.6,425c-5.5,0-10-4.5-10-10s4.5-10,10-10c5.5,0,10,4.5,10,10
	C180.6,420.5,176.1,425,170.6,425C170.6,425,170.6,425,170.6,425L170.6,425z M170.6,377c-5.5,0-10-4.5-10-10s4.5-10,10-10
	c5.5,0,10,4.5,10,10C180.6,372.5,176.1,377,170.6,377C170.6,377,170.6,377,170.6,377L170.6,377z M170.6,328c-5.5,0-10-4.5-10-10
	s4.5-10,10-10c5.5,0,10,4.5,10,10C180.6,323.5,176.1,328,170.6,328C170.6,328,170.6,328,170.6,328L170.6,328z M170.6,279
	c-5.5,0-10-4.5-10-10s4.5-10,10-10c5.5,0,10,4.5,10,10C180.6,274.5,176.1,279,170.6,279C170.6,279,170.6,279,170.6,279L170.6,279z
	 M170.6,231c-5.5,0-10-4.5-10-10s4.5-10,10-10c5.5,0,10,4.5,10,10C180.6,226.5,176.1,231,170.6,231C170.6,231,170.6,231,170.6,231
	L170.6,231z M170.6,182c-5.5,0-10-4.5-10-10c0-5.5,4.5-10,10-10c5.5,0,10,4.5,10,10C180.6,177.5,176.1,182,170.6,182
	C170.6,182,170.6,182,170.6,182L170.6,182z M170.6,133c-5.5,0-10-4.5-10-10c0-5.5,4.5-10,10-10c5.5,0,10,4.5,10,10
	C180.6,128.5,176.1,133,170.6,133C170.6,133,170.6,133,170.6,133L170.6,133z M170.6,86c-5.5,0-10-4.5-10-10s4.5-10,10-10
	c5.5,0,10,4.5,10,10C180.6,81.5,176.1,86,170.6,86C170.6,86,170.6,86,170.6,86L170.6,86z"/>
<polygon class="st5" points="720.6,51.3 720.6,49.3 208.4,49.3 208.4,0 206.4,0 206.4,49.3 139.6,49.3 139.6,51.3 206.4,51.3 
	206.4,98 139.6,98 139.6,100 206.4,100 206.4,146.7 139.6,146.7 139.6,148.7 206.4,148.7 206.4,195.3 139.6,195.3 139.6,197.3 
	206.4,197.3 206.4,244 139.6,244 139.6,246 206.4,246 206.4,292.6 139.6,292.6 139.6,294.6 206.4,294.6 206.4,341.3 139.6,341.3 
	139.6,343.3 206.4,343.3 206.4,390 139.6,390 139.6,392 206.4,392 206.4,438.6 139.6,438.6 139.6,440.6 206.4,440.6 206.4,487.3 
	139.6,487.3 139.6,489.3 206.4,489.3 206.4,536 139.6,536 139.6,538 206.4,538 206.4,584.6 139.6,584.6 139.6,586.6 206.4,586.6 
	206.4,633.3 139.6,633.3 139.6,635.3 206.4,635.3 206.4,676 208.4,676 208.4,635.3 720.6,635.3 720.6,633.3 208.4,633.3 
	208.4,586.6 720.6,586.6 720.6,584.6 208.4,584.6 208.4,538 720.6,538 720.6,536 208.4,536 208.4,489.3 720.6,489.3 720.6,487.3 
	208.4,487.3 208.4,440.6 720.6,440.6 720.6,438.6 208.4,438.6 208.4,392 720.6,392 720.6,390 208.4,390 208.4,343.3 720.6,343.3 
	720.6,341.3 208.4,341.3 208.4,294.6 720.6,294.6 720.6,292.6 208.4,292.6 208.4,246 720.6,246 720.6,244 208.4,244 208.4,197.3 
	720.6,197.3 720.6,195.3 208.4,195.3 208.4,148.7 720.6,148.7 720.6,146.7 208.4,146.7 208.4,100 720.6,100 720.6,98 208.4,98 
	208.4,51.3 "/>
<path class="st6" d="M269.4,173.2c-6,4.7-12.5,8.7-19.4,12.1c-4.4,2.2-9.3,4.1-14.2,3.2s-9.2-5.9-7.7-10.6c1-2.8,3.5-4.8,6.5-5.3
	c2.9-0.4,5.9,0,8.6,1.2c4.9,2.1,9,5.7,11.6,10.3c1.4,2.4,2.4,5.1,4.7,6.6c1.8,1,3.8,1.6,5.9,1.7c4.9,0.6,9.9,1.2,14.7,0.1
	s9.4-4.5,10.6-9.3"/>
<path class="st6" d="M306.5,150.4c0.4,14.7,0.2,29.4-0.6,44.1l10.4-2c3.8-0.7,8.2-1.8,9.9-5.3c1.6-3.3,0.1-7.4-2.6-9.8
	s-6.3-3.6-9.8-4.7l-5.7-1.8"/>
<path class="st6" d="M362.6,166.6c-3.8-0.5-7.7-1-11.5-0.4s-7.5,2.7-9.3,6.2c-3.2,6.3,1.7,14.1,8,17.5c5.2,2.8,11.2,3.7,17,2.6"/>
<path class="st3" d="M279,116.3c-9.6,9-19.1,9-28.7,0c-7.8-7.5-12.2-18-12.1-28.8V0h53v87.4C291.2,98.3,286.8,108.7,279,116.3z"/>
<path class="st3" d="M575.3,426.7c0,81.8-48.6,110.4-108.6,110.4c-1.4,0-2.8,0-4.2,0c-2.8-0.1-5.5-0.2-8.3-0.4
	c-54.2-3.8-96.2-33.9-96.2-110c0-78.7,100.6-178.1,108.2-185.5c0,0,0,0,0,0c0,0,0,0,0,0c0.3-0.3,0.4-0.4,0.4-0.4
	S575.3,344.9,575.3,426.7z"/>
<path class="st0" d="M462.7,524.6l39.7-55.5l-39.8,61.6l-0.1,6.4c-2.8-0.1-5.5-0.2-8.3-0.4l4.3-81.9l0-0.6l0.1-0.1l0.4-7.7
	L419,384.6l40.1,56l0.1,1.6l3.2-61.9l-34.2-63.8l34.6,53l3.4-128.2l0-0.4v0.4l-0.6,101.1l34-40.1l-34.2,48.8l-0.9,55.4l31.8-53.1
	l-31.9,61.3l-0.5,30.8l46.1-74l-46.3,84.7L462.7,524.6z"/>
</svg>
